<svg width="32" height="32" viewBox="0 0 32 32" fill="none" xmlns="http://www.w3.org/2000/svg">
<circle cx="15.9987" cy="12" r="1.91667" stroke="#121213" stroke-width="1.5" stroke-linecap="round"/>
<path d="M21.0068 11.0417C21.261 10.6015 21.6796 10.2802 22.1706 10.1487C22.6616 10.0171 23.1848 10.086 23.625 10.3402C24.0652 10.5943 24.3865 11.013 24.518 11.504C24.6496 11.995 24.5807 12.5181 24.3265 12.9584C24.0724 13.3986 23.6537 13.7198 23.1627 13.8514C22.6717 13.983 22.1486 13.9141 21.7083 13.6599C21.2681 13.4058 20.9469 12.9871 20.8153 12.4961C20.6837 12.0051 20.7526 11.4819 21.0068 11.0417L21.0068 11.0417Z" stroke="#121213" stroke-width="1.5"/>
<path d="M7.67475 11.0417C7.92892 10.6015 8.34755 10.2802 8.83857 10.1487C9.32958 10.0171 9.85274 10.086 10.293 10.3402C10.7332 10.5943 11.0544 11.013 11.186 11.504C11.3176 11.995 11.2487 12.5181 10.9945 12.9584C10.7404 13.3986 10.3217 13.7198 9.83071 13.8514C9.33969 13.983 8.81653 13.9141 8.3763 13.6599C7.93607 13.4058 7.61484 12.9871 7.48328 12.4961C7.35171 12.0051 7.42059 11.4819 7.67475 11.0417L7.67475 11.0417Z" stroke="#121213" stroke-width="1.5"/>
<path d="M22.002 16.667L22.002 15.917H22.002V16.667ZM27.2236 21.0088L27.9605 20.869L27.9604 20.8687L27.2236 21.0088ZM26.335 22V22.75H26.335L26.335 22ZM20.5703 21.0068L21.3101 20.8836L21.3101 20.8836L20.5703 21.0068ZM18.8008 17.582L18.3646 16.9719L17.5666 17.5425L18.3264 18.1629L18.8008 17.582ZM22.002 16.667L22.0019 17.417C23.7271 17.4171 24.751 18.0307 25.3887 18.7551C26.0508 19.5072 26.3531 20.4455 26.4868 21.1489L27.2236 21.0088L27.9604 20.8687C27.8009 20.0296 27.4241 18.7971 26.5146 17.764C25.5806 16.7031 24.1404 15.9171 22.002 15.917L22.002 16.667ZM27.2236 21.0088L26.4868 21.1486C26.4903 21.1672 26.488 21.1753 26.4872 21.1778C26.4861 21.1816 26.483 21.1891 26.4736 21.1993C26.4539 21.2207 26.4079 21.25 26.3349 21.25L26.335 22L26.335 22.75C27.2718 22.7499 28.1664 21.9538 27.9605 20.869L27.2236 21.0088ZM26.335 22V21.25H19.668V22V22.75H26.335V22ZM19.668 22V22.75C20.6092 22.75 21.4887 21.956 21.3101 20.8836L20.5703 21.0068L19.8305 21.13C19.8339 21.1505 19.8315 21.1616 19.8296 21.1675C19.8274 21.1745 19.8225 21.1846 19.8115 21.1964C19.7887 21.221 19.7407 21.25 19.668 21.25V22ZM20.5703 21.0068L21.3101 20.8836C21.1371 19.8454 20.6577 18.1301 19.2752 17.0011L18.8008 17.582L18.3264 18.1629C19.2794 18.9412 19.6762 20.2041 19.8305 21.1301L20.5703 21.0068ZM18.8008 17.582L19.237 18.1921C19.8588 17.7476 20.737 17.417 22.002 17.417V16.667V15.917C20.458 15.917 19.2671 16.3267 18.3646 16.9719L18.8008 17.582Z" fill="#121213"/>
<path d="M9.99902 16.667L9.99906 15.917H9.99902V16.667ZM13.1982 17.582L13.6728 18.1628L14.4324 17.5422L13.6343 16.9718L13.1982 17.582ZM11.4297 21.0068L10.6899 20.8836L10.6899 20.8836L11.4297 21.0068ZM5.66504 22L5.66485 22.75H5.66504V22ZM4.77637 21.0088L4.03957 20.8687L4.03951 20.869L4.77637 21.0088ZM9.99902 16.667L9.99899 17.417C11.263 17.4171 12.1402 17.7478 12.7622 18.1922L13.1982 17.582L13.6343 16.9718C12.7322 16.3272 11.5426 15.9171 9.99906 15.917L9.99902 16.667ZM13.1982 17.582L12.7237 17.0012C11.3417 18.1303 10.8628 19.8458 10.6899 20.8836L11.4297 21.0068L12.1695 21.1301C12.3238 20.2041 12.7203 18.941 13.6728 18.1628L13.1982 17.582ZM11.4297 21.0068L10.6899 20.8836C10.5113 21.956 11.3908 22.75 12.332 22.75V22V21.25C12.2593 21.25 12.2113 21.221 12.1885 21.1964C12.1775 21.1846 12.1726 21.1745 12.1704 21.1675C12.1686 21.1616 12.1661 21.1505 12.1695 21.13L11.4297 21.0068ZM12.332 22V21.25H5.66504V22V22.75H12.332V22ZM5.66504 22L5.66523 21.25C5.5922 21.25 5.54621 21.2207 5.52639 21.1992C5.51701 21.189 5.5139 21.1815 5.51278 21.1777C5.51204 21.1752 5.50971 21.1671 5.51322 21.1486L4.77637 21.0088L4.03951 20.869C3.83367 21.9538 4.72836 22.7498 5.66485 22.75L5.66504 22ZM4.77637 21.0088L5.51316 21.1489C5.64691 20.4455 5.94932 19.5072 6.61162 18.7551C7.24951 18.0307 8.2737 17.417 9.99902 17.417V16.667V15.917C7.86047 15.917 6.42 16.7029 5.48586 17.7638C4.57612 18.7969 4.19914 20.0295 4.03957 20.8687L4.77637 21.0088Z" fill="#121213"/>
<path d="M15.9987 16.6666C19.3783 16.6666 20.3104 19.4638 20.5675 21.0067C20.6582 21.5515 20.2176 22 19.6654 22H12.332C11.7797 22 11.3392 21.5515 11.4299 21.0067C11.687 19.4638 12.6191 16.6666 15.9987 16.6666Z" stroke="#121213" stroke-width="1.5" stroke-linecap="round"/>
<path d="M24.668 28.6666H27.168C27.9964 28.6666 28.668 27.9951 28.668 27.1666V24.6666" stroke="#2A4157" stroke-opacity="0.24" stroke-width="1.5" stroke-linecap="round"/>
<path d="M24.668 3.33337H27.168C27.9964 3.33337 28.668 4.00495 28.668 4.83337V7.33337" stroke="#2A4157" stroke-opacity="0.24" stroke-width="1.5" stroke-linecap="round"/>
<path d="M7.33203 28.6666H4.83203C4.0036 28.6666 3.33203 27.9951 3.33203 27.1666V24.6666" stroke="#2A4157" stroke-opacity="0.24" stroke-width="1.5" stroke-linecap="round"/>
<path d="M7.33203 3.33337H4.83203C4.0036 3.33337 3.33203 4.00495 3.33203 4.83337V7.33337" stroke="#2A4157" stroke-opacity="0.24" stroke-width="1.5" stroke-linecap="round"/>
</svg>
