<svg width="32" height="32" viewBox="0 0 32 32" fill="none" xmlns="http://www.w3.org/2000/svg">
<path d="M15.9987 26.6667L6.01173 14.183C5.67921 13.7674 5.51295 13.5595 5.46829 13.3091C5.42362 13.0586 5.50778 12.8061 5.6761 12.3012L7.087 8.06846C7.52701 6.74842 7.74702 6.08841 8.2708 5.71089C8.79457 5.33337 9.49029 5.33337 10.8817 5.33337H21.1157C22.5071 5.33337 23.2028 5.33337 23.7266 5.71089C24.2504 6.08841 24.4704 6.74842 24.9104 8.06846L26.3213 12.3012C26.4896 12.8061 26.5738 13.0586 26.5291 13.3091C26.4844 13.5595 26.3182 13.7674 25.9857 14.183L15.9987 26.6667ZM15.9987 26.6667L20.6654 12M15.9987 26.6667L11.332 12M25.9987 13.3334L20.6654 12M20.6654 12L18.6654 6.66671M20.6654 12H11.332M13.332 6.66671L11.332 12M11.332 12L5.9987 13.3334" stroke="#121213" stroke-width="1.5" stroke-linecap="round"/>
</svg>
