<svg width="32" height="32" viewBox="0 0 32 32" fill="none" xmlns="http://www.w3.org/2000/svg">
<circle cx="16.0007" cy="15.9999" r="1.66667" stroke="#121213" stroke-width="2"/>
<path d="M24.4029 15.3774C24.529 15.6414 24.5921 15.7734 24.5921 16C24.5921 16.2266 24.529 16.3586 24.4029 16.6226C23.6695 18.1577 21.3042 22 16.0007 22C10.6971 22 8.33179 18.1577 7.59843 16.6226C7.4723 16.3586 7.40923 16.2266 7.40923 16C7.40923 15.7734 7.4723 15.6414 7.59843 15.3774C8.3318 13.8423 10.6971 10 16.0007 10C21.3042 10 23.6695 13.8423 24.4029 15.3774Z" stroke="#121213" stroke-width="2"/>
<path d="M22.6667 5.33325H24.2C25.9913 5.33325 26.887 5.33325 27.4435 5.88975C28 6.44625 28 7.34191 28 9.13325V10.6666M22.6667 26.6666H24.2C25.9913 26.6666 26.887 26.6666 27.4435 26.1101C28 25.5536 28 24.6579 28 22.8666V21.3333M9.33333 5.33325H7.8C6.00866 5.33325 5.11299 5.33325 4.5565 5.88975C4 6.44625 4 7.34191 4 9.13325V10.6666M9.33333 26.6666H7.8C6.00866 26.6666 5.11299 26.6666 4.5565 26.1101C4 25.5536 4 24.6579 4 22.8666V21.3333" stroke="#121213" stroke-width="2" stroke-linecap="round"/>
</svg>
