<svg width="234" height="227" viewBox="0 0 234 227" fill="none" xmlns="http://www.w3.org/2000/svg">
<path d="M116.263 2.28912L111.675 2.39084L111.869 11.168L109.448 11.2217L109.211 0.550452L118.633 0.341599L118.87 11.0128L116.458 11.0663L116.263 2.28912ZM125.79 11.6444C124.22 11.5085 123.018 10.9109 122.181 9.85176C121.345 8.79259 121 7.41656 121.147 5.72368C121.292 4.05025 121.871 2.76076 122.884 1.85519C123.889 0.955542 125.174 0.573404 126.737 0.708775C128.307 0.844707 129.51 1.44226 130.346 2.50143C131.189 3.56116 131.537 4.93098 131.392 6.61089C131.245 8.30377 130.669 9.60004 129.663 10.4997C128.657 11.3993 127.366 11.7809 125.79 11.6444ZM125.958 9.70829C126.794 9.78075 127.477 9.52615 128.004 8.94449C128.524 8.36875 128.833 7.52307 128.929 6.40745C129.025 5.29832 128.864 4.41192 128.444 3.74825C128.031 3.08513 127.406 2.71735 126.569 2.64489C125.739 2.57299 125.064 2.82815 124.543 3.41038C124.015 3.99205 123.704 4.83744 123.608 5.94657C123.511 7.0557 123.673 7.94211 124.093 8.60578C124.506 9.26889 125.128 9.6364 125.958 9.70829ZM141.373 5.02433L136.876 4.10413L135.116 12.7052L132.744 12.2196L134.884 1.76251L144.116 3.65186L141.976 14.109L139.613 13.6254L141.373 5.02433ZM148.375 14.215C149.08 14.4443 149.733 14.4373 150.332 14.1939C150.932 13.9505 151.331 13.5223 151.53 12.9093L151.781 12.1384L149.41 11.5327C148.094 11.2009 147.299 11.4561 147.026 12.2982C146.893 12.7068 146.952 13.0852 147.201 13.4333C147.445 13.7794 147.836 14.0399 148.375 14.215ZM147.12 15.7686C146.117 15.4427 145.387 14.8976 144.931 14.1331C144.468 13.3666 144.382 12.5345 144.674 11.6367C144.967 10.7326 145.534 10.1364 146.374 9.84796C147.208 9.5575 148.279 9.58023 149.586 9.91616L152.275 10.6152L152.517 9.87223C152.69 9.33973 152.65 8.87165 152.398 8.46798C152.15 8.07251 151.713 7.77319 151.088 7.57001C150.568 7.40102 150.091 7.38304 149.658 7.51604C149.224 7.64905 148.9 7.9099 148.685 8.2986L146.549 7.60456C146.881 6.68585 147.532 6.05192 148.501 5.70278C149.475 5.36184 150.559 5.3855 151.754 5.77375C153.023 6.18615 153.937 6.81846 154.495 7.67069C155.06 8.52492 155.178 9.45668 154.85 10.4659L152.59 17.4224L150.37 16.7013L150.901 15.0666L150.845 15.0485C150.392 15.4967 149.826 15.7851 149.147 15.9138C148.477 16.0383 147.801 15.9899 147.12 15.7686ZM164.659 13.1455L161.433 11.6745L159.588 15.0619C158.942 16.2416 158.282 17.0315 157.606 17.4315L157.573 17.5026L161.794 19.4273L164.659 13.1455ZM152.526 20.3315L154.463 16.0844L155.236 16.4369C156.037 16.3441 156.845 15.5461 157.659 14.0428L160.323 9.09659L167.635 12.4315L163.988 20.4282L165.472 21.1049L163.535 25.3521L161.509 24.4282L162.664 21.8959L155.707 18.7231L154.552 21.2554L152.526 20.3315ZM165.924 23.5322L171.498 14.4297L173.531 15.6741L169.767 21.8202L169.833 21.861L177.695 18.2242L179.735 19.4737L174.16 28.5763L172.12 27.3267L175.91 21.139L175.843 21.0982L167.956 24.7767L165.924 23.5322ZM187.949 27.9344L185.337 25.932L179.996 32.8993L178.074 31.4257L183.415 24.4585L180.803 22.4561L181.956 20.9526L189.102 26.4309L187.949 27.9344ZM193.119 32.5079C192.603 32.0207 192.011 31.7843 191.344 31.7988C190.672 31.8181 190.056 32.0868 189.495 32.6048L193.173 36.0778C193.681 35.5014 193.931 34.8863 193.921 34.2326C193.912 33.5789 193.644 33.004 193.119 32.5079ZM192.649 39.9753C191.856 40.5875 190.935 40.8188 189.885 40.6693C188.831 40.5245 187.852 40.0253 186.948 39.1716C185.802 38.0899 185.231 36.8789 185.234 35.5386C185.242 34.2028 185.822 32.9243 186.975 31.703C188.128 30.4818 189.381 29.8195 190.732 29.7163C192.078 29.6086 193.307 30.08 194.42 31.1304C195.508 32.1584 196.046 33.3197 196.032 34.6142C196.019 35.9088 195.458 37.143 194.349 38.3169L193.8 38.8991L188.368 33.7701L188.267 33.8766C187.677 34.5014 187.386 35.1753 187.393 35.8981C187.395 36.6257 187.692 37.2689 188.284 37.8276C188.71 38.2299 189.166 38.4816 189.652 38.5828C190.134 38.6887 190.58 38.6299 190.988 38.4064L192.649 39.9753ZM203.279 43.3298L201.165 44.9854L202.363 46.5155C203.097 47.4536 203.821 47.6437 204.533 47.0858C205.23 46.54 205.252 45.8493 204.598 45.0137L203.279 43.3298ZM199.919 45.9606L197.52 47.8389L198.941 49.6536C199.703 50.6276 200.482 50.8035 201.276 50.1814C202.081 49.5513 202.058 48.6929 201.207 47.6061L199.919 45.9606ZM203.133 40.4181L206.263 44.4165C206.918 45.2521 207.244 46.0593 207.242 46.8382C207.235 47.6119 206.899 48.2596 206.233 48.7814C205.792 49.1266 205.289 49.2926 204.725 49.2796C204.16 49.2757 203.679 49.0942 203.282 48.7352L203.221 48.7834C203.578 49.388 203.708 49.9975 203.61 50.6116C203.511 51.2349 203.2 51.7512 202.677 52.1606C201.939 52.7385 201.141 52.929 200.284 52.7319C199.418 52.5336 198.624 51.9732 197.901 51.0505L194.729 46.9982L203.133 40.4181ZM215.508 62.1819L213.872 59.3262L206.254 63.6901L205.05 61.5886L212.668 57.2247L211.033 54.3691L212.676 53.4274L217.152 61.2402L215.508 62.1819ZM210.252 72.1885C209.614 70.7478 209.558 69.4059 210.082 68.1626C210.607 66.9193 211.646 65.9537 213.2 65.2659C214.736 64.586 216.145 64.4714 217.426 64.9221C218.7 65.3695 219.654 66.3106 220.289 67.7453C220.927 69.186 220.983 70.528 220.458 71.7713C219.936 73.0205 218.904 73.9864 217.362 74.669C215.809 75.3568 214.395 75.477 213.122 75.0296C211.849 74.5822 210.892 73.6351 210.252 72.1885ZM212.029 71.4019C212.369 72.1698 212.921 72.6446 213.685 72.8262C214.44 73.0045 215.329 72.867 216.353 72.4137C217.371 71.963 218.07 71.3939 218.449 70.7063C218.831 70.0247 218.852 69.2999 218.512 68.532C218.175 67.77 217.625 67.3011 216.864 67.1255C216.1 66.9439 215.209 67.0784 214.191 67.5291C213.173 67.9797 212.475 68.5488 212.095 69.2364C211.714 69.918 211.691 70.6399 212.029 71.4019ZM223.56 82.658L222.202 78.2737L213.816 80.8712L213.1 78.5577L223.296 75.3997L226.084 84.4016L215.888 87.5597L215.174 85.2555L223.56 82.658ZM229.47 95.7738L229.461 95.7159L226.379 92.5045L228.724 92.1439L231.842 95.3894L232.22 97.8507L218.292 99.9925L217.917 97.5505L229.47 95.7738ZM218.644 108.592C218.566 106.876 219.161 105.496 220.43 104.454C221.693 103.419 223.459 102.849 225.729 102.746C227.985 102.643 229.786 103.053 231.132 103.975C232.491 104.897 233.209 106.214 233.287 107.924C233.365 109.635 232.773 111.008 231.51 112.043C230.254 113.078 228.497 113.647 226.24 113.75C223.977 113.853 222.167 113.45 220.809 112.541C219.444 111.619 218.722 110.303 218.644 108.592ZM220.702 108.499C220.745 109.429 221.243 110.132 222.197 110.61C223.15 111.082 224.456 111.28 226.115 111.204C227.76 111.129 229.033 110.81 229.932 110.248C230.839 109.685 231.271 108.942 231.229 108.018C231.186 107.095 230.688 106.387 229.734 105.897C228.78 105.412 227.486 105.207 225.854 105.282C224.196 105.358 222.913 105.68 222.007 106.249C221.095 106.812 220.66 107.562 220.702 108.499ZM226.735 124.46L226.514 126.322C226.424 127.085 226.548 127.726 226.886 128.244C227.224 128.763 227.71 129.06 228.344 129.135C228.971 129.21 229.495 129.046 229.917 128.643C230.331 128.247 230.584 127.664 230.675 126.894C230.767 126.118 230.651 125.469 230.326 124.945C230.001 124.421 229.512 124.095 228.859 123.965L229.136 121.627C230.402 121.843 231.356 122.451 231.998 123.452C232.633 124.452 232.862 125.702 232.684 127.201C232.515 128.63 232.024 129.752 231.213 130.567C230.408 131.383 229.45 131.725 228.338 131.593C227.555 131.5 226.895 131.176 226.358 130.621C225.821 130.065 225.511 129.389 225.429 128.593L225.351 128.583C225.13 129.508 224.676 130.208 223.991 130.684C223.305 131.16 222.49 131.342 221.546 131.23C220.35 131.088 219.414 130.466 218.739 129.363C218.064 128.253 217.817 126.936 217.998 125.41C218.183 123.852 218.718 122.63 219.603 121.745C220.489 120.854 221.569 120.451 222.844 120.537L222.559 122.942C221.9 122.916 221.344 123.152 220.892 123.649C220.446 124.14 220.173 124.812 220.072 125.666C219.975 126.487 220.103 127.174 220.457 127.727C220.811 128.281 221.324 128.597 221.996 128.677C222.675 128.758 223.235 128.572 223.675 128.119C224.115 127.673 224.387 127.01 224.491 126.131L224.718 124.221L226.735 124.46ZM218.198 136.742C218.029 137.465 218.091 138.114 218.384 138.691C218.677 139.268 219.138 139.629 219.765 139.776L220.554 139.961L220.958 137.548C221.178 136.208 220.857 135.438 219.994 135.236C219.576 135.138 219.204 135.229 218.878 135.507C218.554 135.779 218.327 136.19 218.198 136.742ZM216.544 135.623C216.784 134.596 217.266 133.823 217.989 133.303C218.714 132.777 219.536 132.622 220.455 132.837C221.381 133.053 222.023 133.568 222.381 134.38C222.741 135.187 222.808 136.255 222.584 137.587L222.114 140.325L222.875 140.503C223.42 140.631 223.883 140.552 224.264 140.266C224.637 139.986 224.898 139.526 225.048 138.885C225.173 138.353 225.15 137.876 224.981 137.456C224.812 137.035 224.525 136.734 224.12 136.552L224.631 134.365C225.574 134.619 226.261 135.214 226.691 136.15C227.112 137.091 227.18 138.174 226.894 139.397C226.59 140.697 226.037 141.661 225.235 142.289C224.432 142.923 223.513 143.12 222.48 142.878L215.357 141.212L215.889 138.94L217.562 139.331L217.576 139.274C217.091 138.86 216.756 138.32 216.57 137.655C216.39 136.998 216.381 136.32 216.544 135.623ZM222.997 154.958L223.018 154.904L221.965 150.579L224.175 151.445L225.241 155.817L224.332 158.135L211.212 152.993L212.113 150.693L222.997 154.958ZM207.202 160.607C207.995 159.082 209.202 158.187 210.823 157.922C212.434 157.66 214.248 158.054 216.263 159.103C218.267 160.146 219.62 161.404 220.321 162.877C221.034 164.356 220.995 165.855 220.204 167.374C219.414 168.893 218.213 169.783 216.601 170.045C214.995 170.31 213.19 169.922 211.186 168.879C209.177 167.833 207.812 166.576 207.094 165.108C206.375 163.626 206.411 162.126 207.202 160.607ZM209.03 161.558C208.6 162.384 208.678 163.243 209.263 164.134C209.851 165.02 210.882 165.847 212.354 166.613C213.816 167.374 215.076 167.736 216.137 167.701C217.203 167.669 217.95 167.243 218.377 166.423C218.803 165.602 218.727 164.741 218.148 163.837C217.565 162.94 216.549 162.114 215.1 161.359C213.627 160.593 212.356 160.229 211.287 160.267C210.215 160.296 209.462 160.726 209.03 161.558ZM209.813 177.617L208.315 179.52L201.409 174.082L199.301 176.76L206.206 182.198L204.708 184.1L197.803 178.663L195.694 181.34L202.599 186.778L201.101 188.681L192.715 182.077L201.427 171.014L209.813 177.617ZM189.663 187.683C189.13 188.2 188.831 188.78 188.766 189.424C188.702 190.068 188.894 190.621 189.342 191.083L189.907 191.665L191.55 189.852C192.458 188.844 192.604 188.022 191.988 187.387C191.688 187.078 191.327 186.953 190.902 187.011C190.482 187.065 190.069 187.289 189.663 187.683ZM188.875 185.848C189.632 185.114 190.455 184.723 191.344 184.677C192.238 184.626 193.014 184.939 193.672 185.616C194.334 186.298 194.596 187.078 194.458 187.955C194.326 188.828 193.805 189.764 192.897 190.763L191.022 192.814L191.566 193.375C191.956 193.777 192.389 193.96 192.863 193.926C193.329 193.891 193.798 193.645 194.27 193.187C194.662 192.806 194.901 192.393 194.986 191.948C195.071 191.503 194.992 191.094 194.748 190.722L196.36 189.158C197.017 189.881 197.273 190.753 197.129 191.773C196.976 192.793 196.448 193.74 195.547 194.615C194.589 195.545 193.603 196.057 192.588 196.153C191.569 196.252 190.69 195.922 189.951 195.16L184.857 189.911L186.532 188.286L187.729 189.519L187.771 189.478C187.587 188.868 187.596 188.232 187.8 187.572C188.003 186.922 188.361 186.347 188.875 185.848ZM186.901 199.65L181.399 192.808L183.286 191.29L189.975 199.608L184.367 204.119L183.179 202.642L186.901 199.65ZM172.417 199.076C173.739 198.218 175.055 197.95 176.365 198.271C177.676 198.592 178.794 199.466 179.719 200.891C180.634 202.3 180.97 203.673 180.728 205.01C180.488 206.338 179.71 207.429 178.394 208.283C177.072 209.141 175.756 209.409 174.445 209.088C173.129 208.77 172.012 207.904 171.094 206.49C170.169 205.065 169.826 203.688 170.066 202.36C170.307 201.032 171.09 199.937 172.417 199.076ZM173.475 200.706C172.771 201.163 172.389 201.784 172.331 202.567C172.275 203.341 172.551 204.197 173.161 205.136C173.767 206.07 174.44 206.67 175.179 206.935C175.912 207.204 176.631 207.11 177.335 206.653C178.034 206.199 178.41 205.583 178.463 204.803C178.522 204.02 178.248 203.162 177.642 202.228C177.035 201.294 176.363 200.695 175.624 200.429C174.89 200.16 174.174 200.252 173.475 200.706ZM168.507 212.008L167.297 209.61L165.562 210.486C164.499 211.022 164.171 211.695 164.578 212.502C164.977 213.293 165.65 213.449 166.598 212.971L168.507 212.008ZM166.585 208.198L165.212 205.477L163.155 206.516C162.05 207.073 161.725 207.802 162.18 208.703C162.64 209.615 163.487 209.761 164.719 209.139L166.585 208.198ZM171.391 212.434L166.857 214.722C165.91 215.2 165.054 215.361 164.291 215.207C163.533 215.049 162.964 214.593 162.583 213.837C162.331 213.337 162.266 212.812 162.389 212.261C162.504 211.708 162.776 211.272 163.206 210.953L163.17 210.883C162.507 211.115 161.884 211.123 161.301 210.907C160.709 210.688 160.264 210.282 159.965 209.689C159.543 208.852 159.512 208.033 159.873 207.231C160.237 206.42 160.942 205.751 161.988 205.223L166.583 202.904L171.391 212.434ZM141.247 215.726C142.095 215.523 142.895 215.65 143.647 216.107C144.393 216.571 144.868 217.227 145.071 218.076C145.273 218.924 145.146 219.721 144.688 220.467C144.225 221.22 143.569 221.697 142.721 221.9C141.872 222.103 141.071 221.973 140.318 221.51C139.573 221.052 139.099 220.399 138.897 219.55C138.694 218.701 138.821 217.901 139.277 217.15C139.742 216.403 140.398 215.928 141.247 215.726ZM114.427 224.506L119.017 224.508L119.021 215.729L121.443 215.73L121.438 226.404L112.014 226.4L112.019 215.726L114.431 215.727L114.427 224.506ZM105.119 214.906C106.684 215.086 107.869 215.717 108.675 216.8C109.481 217.882 109.787 219.267 109.593 220.955C109.401 222.624 108.786 223.896 107.747 224.773C106.717 225.644 105.422 225.99 103.863 225.81C102.298 225.63 101.112 224.999 100.306 223.916C99.4939 222.833 99.1841 221.454 99.377 219.779C99.5713 218.091 100.184 216.812 101.215 215.941C102.246 215.07 103.547 214.725 105.119 214.906ZM104.896 216.836C104.062 216.74 103.373 216.976 102.829 217.542C102.293 218.103 101.961 218.94 101.833 220.052C101.705 221.158 101.842 222.049 102.243 222.724C102.637 223.398 103.251 223.784 104.085 223.88C104.913 223.975 105.596 223.739 106.133 223.172C106.677 222.605 107.012 221.769 107.139 220.663C107.267 219.557 107.13 218.666 106.729 217.991C106.335 217.317 105.724 216.932 104.896 216.836ZM89.3729 221.11L93.8446 222.145L95.8237 213.591L98.1833 214.137L95.777 224.536L86.5958 222.412L89.002 212.013L91.352 212.557L89.3729 221.11ZM82.609 211.754C81.9088 211.508 81.2562 211.499 80.6513 211.728C80.0463 211.958 79.6371 212.376 79.4235 212.984L79.1548 213.749L81.51 214.411C82.8179 214.773 83.6185 214.537 83.912 213.702C84.0544 213.296 84.0049 212.917 83.7635 212.563C83.5282 212.211 83.1434 211.941 82.609 211.754ZM83.8998 210.23C84.8949 210.58 85.6116 211.142 86.0501 211.917C86.4948 212.694 86.5606 213.528 86.2478 214.419C85.9327 215.316 85.352 215.898 84.5055 216.167C83.6652 216.437 82.5953 216.389 81.2958 216.023L78.624 215.26L78.3651 215.997C78.1796 216.525 78.2081 216.994 78.4506 217.404C78.6892 217.805 79.1187 218.115 79.7391 218.333C80.255 218.514 80.7312 218.543 81.1677 218.42C81.6041 218.298 81.9345 218.045 82.1589 217.661L84.2781 218.405C83.9237 219.316 83.258 219.934 82.2809 220.26C81.2998 220.578 80.2165 220.529 79.031 220.113C77.7718 219.67 76.8732 219.016 76.3353 218.151C75.7912 217.284 75.6951 216.35 76.0468 215.348L78.4709 208.447L80.673 209.221L80.1034 210.842L80.1587 210.862C80.6228 210.425 81.1955 210.15 81.8768 210.037C82.5498 209.928 83.2241 209.993 83.8998 210.23ZM66.2874 212.393L69.4709 213.952L71.4091 210.617C72.0868 209.456 72.7692 208.684 73.4561 208.303L73.4905 208.233L69.3248 206.192L66.2874 212.393ZM78.6135 205.545L76.5599 209.737L75.797 209.363C74.9939 209.434 74.1646 210.209 73.3089 211.689L70.5097 216.56L63.2921 213.024L67.1587 205.131L65.6941 204.414L67.7477 200.222L69.7472 201.201L68.5228 203.701L75.3896 207.065L76.614 204.565L78.6135 205.545ZM65.3081 201.979L59.5158 210.944L57.5144 209.651L61.4253 203.597L61.3597 203.555L53.413 207.001L51.4034 205.703L57.1957 196.737L59.2053 198.036L55.2678 204.13L55.3335 204.173L63.3066 200.685L65.3081 201.979ZM43.3941 197.025L45.9534 199.094L51.473 192.267L53.3563 193.789L47.8367 200.617L50.3959 202.686L49.2048 204.159L42.203 198.498L43.3941 197.025ZM38.3489 192.343C38.8532 192.842 39.4392 193.092 40.1067 193.093C40.7788 193.09 41.4013 192.836 41.9742 192.331L38.3789 188.773C37.857 189.337 37.5931 189.946 37.5872 190.6C37.5814 191.253 37.8353 191.834 38.3489 192.343ZM38.9943 184.889C39.8014 184.295 40.728 184.086 41.7739 184.26C42.8244 184.429 43.7915 184.951 44.6753 185.826C45.7951 186.935 46.3377 188.159 46.3031 189.498C46.264 190.834 45.6536 192.098 44.472 193.292C43.2903 194.486 42.023 195.118 40.6699 195.19C39.3214 195.266 38.1035 194.766 37.0161 193.689C35.9519 192.636 35.4418 191.462 35.4858 190.169C35.5298 188.875 36.1197 187.654 37.2555 186.506L37.8188 185.937L43.1284 191.193L43.2315 191.089C43.836 190.478 44.1433 189.811 44.1534 189.088C44.1681 188.361 43.8863 187.711 43.3079 187.138C42.8914 186.726 42.4412 186.464 41.9573 186.351C41.4779 186.234 41.0316 186.282 40.6184 186.496L38.9943 184.889ZM28.44 181.248L30.5983 179.65L29.4419 178.088C28.733 177.131 28.0148 176.921 27.2875 177.46C26.576 177.987 26.5359 178.677 27.1674 179.53L28.44 181.248ZM31.8698 178.709L34.3185 176.896L32.9471 175.044C32.211 174.049 31.4374 173.853 30.6264 174.453C29.805 175.061 29.8049 175.92 30.6262 177.029L31.8698 178.709ZM28.508 184.163L25.4862 180.082C24.8547 179.229 24.5505 178.413 24.5735 177.635C24.6004 176.861 24.954 176.223 25.6342 175.719C26.0841 175.386 26.5909 175.234 27.1546 175.262C27.7196 175.281 28.1956 175.475 28.5827 175.845L28.6455 175.798C28.3042 175.184 28.1908 174.572 28.3052 173.96C28.421 173.34 28.7457 172.832 29.2794 172.437C30.0329 171.879 30.8354 171.71 31.6869 171.93C32.5475 172.152 33.3265 172.733 34.0239 173.675L37.0863 177.811L28.508 184.163ZM16.7003 162.103L18.2638 164.999L25.989 160.828L27.1396 162.959L19.4144 167.13L20.9779 170.026L19.3108 170.926L15.0332 163.003L16.7003 162.103ZM22.2268 152.221C22.8224 153.68 22.8398 155.023 22.2792 156.25C21.7185 157.478 20.6516 158.413 19.0785 159.055C17.5234 159.69 16.1118 159.763 14.8438 159.276C13.5842 158.791 12.6578 157.823 12.0647 156.37C11.4692 154.912 11.4517 153.569 12.0124 152.341C12.5706 151.108 13.6302 150.172 15.1913 149.535C16.7645 148.892 18.1808 148.813 19.4404 149.298C20.7 149.782 21.6288 150.756 22.2268 152.221ZM20.4277 152.956C20.1102 152.178 19.5723 151.688 18.814 151.484C18.0643 151.284 17.171 151.395 16.1343 151.818C15.1036 152.239 14.3888 152.788 13.9898 153.464C13.5884 154.134 13.5464 154.858 13.8639 155.636C14.1789 156.407 14.7143 156.892 15.4701 157.09C16.2284 157.293 17.1229 157.185 18.1536 156.764C19.1842 156.343 19.8991 155.795 20.298 155.118C20.6995 154.448 20.7427 153.727 20.4277 152.956ZM9.2079 141.408L10.4543 145.826L18.9037 143.441L19.5614 145.772L9.28861 148.671L6.72954 139.601L17.0023 136.703L17.6573 139.024L9.2079 141.408ZM3.64804 128.154L3.65552 128.212L6.65815 131.498L4.30451 131.801L1.26784 128.48L0.949975 126.01L14.9265 124.212L15.2419 126.662L3.64804 128.154ZM14.7779 115.608C14.8164 117.326 14.1892 118.691 12.8964 119.703C11.6099 120.709 9.83095 121.237 7.55938 121.288C5.30083 121.339 3.50969 120.887 2.18595 119.933C0.849191 118.98 0.161669 117.647 0.123383 115.935C0.085097 114.224 0.709169 112.865 1.9956 111.859C3.27552 110.854 5.04476 110.326 7.30331 110.275C9.56836 110.225 11.3691 110.67 12.7056 111.61C14.0489 112.563 14.7396 113.896 14.7779 115.608ZM12.7179 115.654C12.6971 114.723 12.2155 114.008 11.2731 113.508C10.3308 113.014 9.0298 112.786 7.37006 112.823C5.72334 112.86 4.44368 113.149 3.53107 113.691C2.61196 114.232 2.16274 114.965 2.18341 115.889C2.20409 116.814 2.68577 117.532 3.62846 118.045C4.57101 118.551 5.85914 118.786 7.49284 118.75C9.15259 118.713 10.4419 118.42 11.3609 117.872C12.2865 117.33 12.7389 116.591 12.7179 115.654ZM7.08807 99.5534L7.35326 97.6973C7.46191 96.9367 7.35327 96.2932 7.02735 95.7665C6.70142 95.2399 6.22265 94.9314 5.59105 94.8412C4.96588 94.7519 4.43785 94.9033 4.00696 95.2955C3.58342 95.6822 3.31687 96.2591 3.2073 97.026C3.0968 97.7994 3.19761 98.4517 3.50973 98.983C3.82185 99.5142 4.30291 99.8526 4.95293 99.9981L4.62007 102.328C3.35962 102.082 2.4205 101.451 1.80271 100.436C1.19137 99.4212 0.992512 98.1663 1.20613 96.6711C1.40963 95.2467 1.92662 94.1368 2.75711 93.3413C3.58116 92.5449 4.54745 92.2259 5.65598 92.3843C6.43582 92.4957 7.08769 92.8354 7.61156 93.4035C8.13544 93.9716 8.42914 94.6548 8.49266 95.453L8.57 95.4641C8.81308 94.5452 9.28311 93.8561 9.9801 93.3966C10.6771 92.9372 11.4961 92.7747 12.437 92.9091C13.6293 93.0795 14.55 93.724 15.1991 94.8427C15.8473 95.9678 16.0627 97.2909 15.8454 98.8119C15.6235 100.365 15.0596 101.574 14.1536 102.437C13.2467 103.307 12.157 103.684 10.8846 103.568L11.2271 101.171C11.8854 101.212 12.4466 100.99 12.9106 100.504C13.3673 100.023 13.6564 99.3574 13.778 98.5066C13.8949 97.6881 13.7831 96.998 13.4424 96.4364C13.1017 95.8748 12.5963 95.5461 11.926 95.4503C11.2493 95.3536 10.6853 95.5263 10.2342 95.9682C9.78395 96.4037 9.49622 97.0597 9.37099 97.9362L9.0989 99.8407L7.08807 99.5534ZM15.9311 87.4775C16.1195 86.7597 16.0749 86.1085 15.7975 85.5242C15.52 84.9399 15.0696 84.5659 14.4461 84.4023L13.6621 84.1966L13.1937 86.5978C12.9382 87.9307 13.2386 88.7096 14.0951 88.9343C14.5107 89.0433 14.8851 88.9632 15.2182 88.6939C15.5498 88.4309 15.7874 88.0254 15.9311 87.4775ZM17.5544 88.6405C17.2867 89.6606 16.7844 90.4207 16.0475 90.9206C15.3089 91.4268 14.483 91.5601 13.5699 91.3205C12.6505 91.0793 12.0227 90.5478 11.6864 89.7259C11.3485 88.9103 11.3096 87.84 11.5697 86.515L12.113 83.7902L11.3573 83.5919C10.8158 83.4498 10.3507 83.5163 9.96224 83.7913C9.58169 84.0616 9.30798 84.5148 9.14111 85.1508C9.00232 85.6798 9.01178 86.1568 9.16949 86.5818C9.32721 87.0069 9.60628 87.3157 10.0067 87.5082L9.4367 89.6808C8.50037 89.4015 7.83005 88.7881 7.42575 87.8407C7.02939 86.8886 6.99065 85.8049 7.30953 84.5895C7.64824 83.2986 8.22695 82.3499 9.04566 81.7436C9.86601 81.1309 10.7894 80.9593 11.8159 81.2286L18.8909 83.0849L18.2985 85.3424L16.6361 84.9062L16.6212 84.9629C17.0947 85.39 17.4152 85.9386 17.5827 86.6085C17.7456 87.2704 17.7361 87.9478 17.5544 88.6405ZM11.6072 69.1447L11.5844 69.1987L12.5253 73.5495L10.339 72.6268L9.3863 68.2286L10.3546 65.9343L23.3375 71.4137L22.3768 73.6899L11.6072 69.1447ZM27.5448 63.907C26.7117 65.4103 25.4818 66.2732 23.855 66.4956C22.237 66.7155 20.4344 66.2748 18.447 65.1735C16.471 64.0785 15.1518 62.7854 14.4894 61.2944C13.8156 59.7971 13.8937 58.2996 14.7237 56.802C15.5536 55.3043 16.7776 54.4456 18.3955 54.2257C20.0077 54.0027 21.8019 54.4386 23.7779 55.5337C25.7595 56.6318 27.0904 57.9239 27.7705 59.4098C28.45 60.9103 28.3748 62.4093 27.5448 63.907ZM25.7425 62.9082C26.1938 62.0939 26.1385 61.2333 25.5766 60.3265C25.0116 59.4254 24.003 58.5725 22.5509 57.7678C21.1102 56.9694 19.8594 56.5739 18.7983 56.5814C17.7315 56.5857 16.9741 56.9921 16.526 57.8008C16.0779 58.6094 16.1316 59.4728 16.6871 60.391C17.2458 61.3035 18.2398 62.1558 19.6692 62.9479C21.1213 63.7526 22.3823 64.1499 23.4522 64.1399C24.5246 64.1388 25.2881 63.7282 25.7425 62.9082ZM25.3694 46.8218L26.9178 44.9596L33.6758 50.579L35.8549 47.9584L29.0969 42.3391L30.6454 40.4769L37.4033 46.0962L39.5824 43.4757L32.8244 37.8563L34.3729 35.9941L42.5801 42.8185L33.5765 53.6463L25.3694 46.8218ZM45.7636 37.2864C46.3079 36.7819 46.6199 36.2086 46.6996 35.5667C46.7792 34.9248 46.6 34.3674 46.1619 33.8947L45.6109 33.3002L43.9265 35.0744C42.9953 36.0617 42.8306 36.8801 43.4325 37.5295C43.7245 37.8447 44.0834 37.9781 44.5091 37.9298C44.93 37.8859 45.3481 37.6714 45.7636 37.2864ZM46.5086 39.139C45.7351 39.8559 44.9032 40.2274 44.0131 40.2535C43.1182 40.284 42.3499 39.9531 41.7082 39.2607C41.0621 38.5636 40.8178 37.778 40.9754 36.9041C41.1282 36.0346 41.6701 35.1108 42.601 34.1326L44.5222 32.1256L43.9912 31.5526C43.6106 31.1419 43.1826 30.9483 42.7072 30.9717C42.241 30.9955 41.7668 31.2308 41.2845 31.6778C40.8834 32.0496 40.6353 32.4571 40.5401 32.9003C40.445 33.3436 40.5146 33.7539 40.749 34.1314L39.1017 35.6582C38.4617 34.9198 38.2255 34.0424 38.3931 33.0261C38.5699 32.0101 39.1191 31.075 40.0407 30.2209C41.0196 29.3136 42.0171 28.824 43.0334 28.7521C44.0544 28.6757 44.9256 29.0267 45.6469 29.805L50.619 35.1697L48.9072 36.7562L47.7388 35.4956L47.6959 35.5354C47.866 36.15 47.8419 36.7848 47.6235 37.4399C47.4055 38.0858 47.0339 38.6522 46.5086 39.139ZM48.8446 25.3742L54.154 32.3661L52.2252 33.8307L45.7701 25.3301L51.502 20.9774L52.6477 22.4862L48.8446 25.3742ZM63.2971 26.3331C61.9551 27.1584 60.6328 27.3945 59.3303 27.0414C58.0279 26.6882 56.9316 25.788 56.0415 24.3405C55.1616 22.9097 54.859 21.529 55.1337 20.1984C55.4062 18.8767 56.2107 17.8049 57.5472 16.983C58.8893 16.1577 60.2116 15.9216 61.514 16.2748C62.822 16.6245 63.9177 17.5175 64.8009 18.9538C65.6911 20.4013 65.9998 21.7858 65.7273 23.1075C65.4548 24.4292 64.6447 25.5044 63.2971 26.3331ZM62.2791 24.6777C62.9945 24.2378 63.3909 23.6271 63.4684 22.8458C63.5437 22.0734 63.2881 21.2103 62.7015 20.2564C62.1183 19.3081 61.4606 18.6922 60.7284 18.4088C60.0017 18.1219 59.2806 18.1985 58.5652 18.6384C57.8554 19.0749 57.4645 19.6822 57.3926 20.4601C57.3152 21.2415 57.568 22.1063 58.1512 23.0546C58.7344 24.0029 59.3921 24.6188 60.1243 24.9022C60.851 25.1891 61.5693 25.1142 62.2791 24.6777ZM67.5457 13.4991L68.6904 15.9285L70.4484 15.1001C71.5262 14.5923 71.8722 13.9291 71.4865 13.1105C71.1091 12.3095 70.4404 12.1352 69.4804 12.5875L67.5457 13.4991ZM69.3648 17.3596L70.6635 20.1158L72.7483 19.1335C73.8673 18.6062 74.2117 17.8862 73.7816 16.9733C73.3459 16.0487 72.5038 15.8805 71.2553 16.4688L69.3648 17.3596ZM64.6743 12.9953L69.268 10.8308C70.2279 10.3785 71.0874 10.2398 71.8464 10.4147C72.5994 10.5925 73.1563 11.0642 73.5171 11.8298C73.7557 12.3363 73.8061 12.8631 73.6681 13.4103C73.5388 13.9607 73.255 14.3894 72.8168 14.6967L72.8501 14.7673C73.5191 14.5529 74.1422 14.5616 74.7192 14.7934C75.305 15.0284 75.7394 15.4463 76.0224 16.047C76.422 16.8951 76.4306 17.7151 76.0481 18.5071C75.6624 19.3077 74.9396 19.9578 73.8795 20.4573L69.224 22.651L64.6743 12.9953ZM90.4174 11.5406C89.5726 11.7582 88.7704 11.6456 88.0108 11.2026C87.256 10.7517 86.7697 10.1038 86.552 9.25904C86.3343 8.41424 86.4478 7.61521 86.8924 6.86196C87.3417 6.10078 87.9887 5.61135 88.8335 5.39368C89.6783 5.176 90.4813 5.29181 91.2425 5.74109C91.9957 6.18569 92.4812 6.8304 92.6989 7.6752C92.9166 8.52 92.8039 9.32218 92.3609 10.0817C91.91 10.8366 91.2622 11.3229 90.4174 11.5406Z" fill="black"/>
</svg>
