<svg width="227" height="230" viewBox="0 0 227 230" fill="none" xmlns="http://www.w3.org/2000/svg">
<path d="M109.848 8.84526C109.747 10.5191 109.435 11.6668 108.912 12.2884L108.912 12.3666L115.064 12.3297L115.005 2.48608L110.21 2.51484L109.848 8.84526ZM107.428 17.2877L105.133 17.3014L105.103 12.3894L106.109 12.3834C106.946 11.851 107.414 10.6242 107.513 8.70301L107.971 0.4091L117.502 0.351918L117.574 12.3146L119.332 12.304L119.361 17.2161L117.076 17.2298L117.059 14.4466L107.411 14.5045L107.428 17.2877ZM125.239 10.0796C124.934 11.7083 124.495 12.8875 123.92 13.6173C123.252 14.4603 122.34 14.811 121.184 14.6692C120.854 14.6288 120.594 14.5576 120.403 14.4555L120.658 12.3715C120.827 12.4446 121.017 12.4942 121.231 12.5203C121.715 12.5797 122.111 12.3429 122.419 11.81C122.678 11.3628 122.899 10.6553 123.083 9.68747L124.104 4.1652L131.713 5.09764L130.415 15.6922L128.011 15.3976L129.079 6.68352L125.967 6.30223L125.239 10.0796ZM139.74 12.2149L140.517 8.89647L138.701 8.47115C138.124 8.33606 137.632 8.38131 137.225 8.6069C136.81 8.83734 136.541 9.21245 136.42 9.73224C136.307 10.214 136.387 10.6408 136.661 11.0125C136.939 11.3984 137.359 11.6574 137.924 11.7896L139.74 12.2149ZM139.33 13.9644L137.894 13.6282L134.631 16.555L131.978 15.9337L135.692 12.7112C135.02 12.3264 134.541 11.8298 134.255 11.2214C133.965 10.6051 133.905 9.93244 134.076 9.20347C134.331 8.11318 134.902 7.33402 135.787 6.866C136.664 6.40283 137.721 6.31598 138.957 6.60547L143.264 7.6142L140.831 18.0068L138.511 17.4635L139.33 13.9644ZM151.69 22.0552C150.115 21.4192 149.118 20.4344 148.702 19.1009C148.276 17.7564 148.455 16.1121 149.24 14.1682C150.356 11.4031 151.604 9.57244 152.983 8.67608C154.321 7.79772 155.945 7.70547 157.855 8.39933L158.835 8.76327C160.104 9.21939 161.033 9.41512 161.621 9.35046L160.886 11.1707C160.454 11.3192 159.567 11.1508 158.225 10.6655L157.273 10.3125C156.006 9.85035 154.962 9.82594 154.143 10.2393C153.376 10.6249 152.615 11.4936 151.859 12.8453L151.931 12.8745C153.073 11.9242 154.441 11.7707 156.035 12.414C157.375 12.955 158.267 13.8137 158.712 14.9902C159.161 16.1752 159.093 17.4922 158.508 18.9411C157.877 20.5047 156.951 21.5633 155.73 22.1168C154.516 22.6728 153.169 22.6522 151.69 22.0552ZM152.396 20.2023C153.193 20.5239 153.92 20.4978 154.576 20.1239C155.239 19.7524 155.773 19.0625 156.18 18.0543C156.57 17.0883 156.651 16.2538 156.422 15.5507C156.196 14.8415 155.687 14.3273 154.896 14.0081C154.105 13.6889 153.385 13.7072 152.736 14.063C152.081 14.4164 151.56 15.0731 151.172 16.033C150.765 17.0412 150.668 17.9077 150.881 18.6325C151.1 19.3598 151.605 19.8831 152.396 20.2023ZM171.904 20.0944L174.004 21.2812L168.752 30.5737L166.652 29.3869L171.904 20.0944ZM163.054 20.9261L161.224 24.1653L162.754 25.0302C163.275 25.3249 163.775 25.4129 164.254 25.2944C164.726 25.1726 165.1 24.868 165.376 24.3806C165.651 23.8932 165.718 23.4112 165.576 22.9346C165.431 22.4637 165.1 22.0825 164.585 21.791L163.054 20.9261ZM163.444 15.3136L165.553 16.5052L163.967 19.3108L165.753 20.3198C166.835 20.9316 167.533 21.7148 167.846 22.6695C168.157 23.6152 168.032 24.584 167.471 25.5759C166.91 26.5678 166.145 27.1746 165.174 27.3965C164.198 27.6151 163.169 27.4185 162.087 26.8067L158.193 24.606L163.444 15.3136ZM180.519 30.165C180.712 29.6843 180.738 29.2101 180.598 28.7424C180.453 28.2475 180.135 27.8183 179.642 27.4551C178.998 26.9797 178.296 26.8505 177.538 27.0675C176.771 27.2949 176.071 27.8383 175.437 28.6975C174.788 29.5777 174.472 30.4168 174.49 31.2149C174.506 31.9947 174.838 32.6243 175.488 33.1035C176.489 33.8417 177.439 33.8589 178.338 33.1551L180.193 34.5232C179.415 35.325 178.496 35.7431 177.435 35.7776C176.369 35.8082 175.322 35.4447 174.295 34.6873C173.043 33.7636 172.342 32.6357 172.192 31.3035C172.032 29.9636 172.456 28.6099 173.465 27.2425C174.454 25.9012 175.614 25.1023 176.944 24.8456C178.27 24.5941 179.554 24.9264 180.796 25.8423C181.838 26.6114 182.496 27.5294 182.769 28.5963C183.025 29.619 182.897 30.5999 182.382 31.5389L180.519 30.165ZM191.389 37.4491L188.955 35.2344L183.047 41.7282L181.255 40.0983L187.163 33.6045L184.729 31.3898L186.004 29.9885L192.664 36.0478L191.389 37.4491ZM198.475 42.2755C199.376 43.2949 199.724 44.4301 199.518 45.6812C199.312 46.9323 198.582 48.112 197.328 49.2202C196.08 50.3242 194.824 50.9042 193.561 50.9603C192.299 51.0164 191.221 50.5396 190.329 49.53C189.281 48.3448 189.012 47.0922 189.522 45.7721L189.49 45.7356L185.597 49.1768L183.987 47.355L194.551 38.0146L196.123 39.7925L194.777 40.9827L194.809 41.0192C195.442 40.8506 196.089 40.8788 196.748 41.1039C197.408 41.3289 197.983 41.7195 198.475 42.2755ZM191.345 47.6277C191.88 48.2325 192.538 48.5105 193.321 48.4618C194.112 48.4136 194.898 48.0446 195.679 47.3546C196.459 46.6646 196.922 45.9298 197.067 45.15C197.216 44.3751 197.023 43.6852 196.488 43.0804C195.962 42.4853 195.301 42.2141 194.504 42.2665C193.708 42.319 192.924 42.6859 192.154 43.3673C191.383 44.0486 190.923 44.7813 190.773 45.5654C190.628 46.3452 190.819 47.0326 191.345 47.6277ZM197.011 58.1261C196.106 56.8366 195.79 55.531 196.064 54.2096C196.337 52.8881 197.169 51.7393 198.56 50.763C199.935 49.798 201.295 49.4123 202.64 49.6057C203.975 49.7976 205.094 50.5357 205.995 51.8199C206.901 53.1095 207.216 54.415 206.943 55.7365C206.673 57.0633 205.848 58.211 204.468 59.1798C203.077 60.156 201.714 60.5482 200.378 60.3563C199.042 60.1644 197.92 59.421 197.011 58.1261ZM198.602 57.0096C199.084 57.697 199.718 58.0557 200.503 58.0856C201.278 58.114 202.124 57.8065 203.041 57.1631C203.952 56.5235 204.527 55.8297 204.765 55.0816C205.007 54.3389 204.887 53.6238 204.405 52.9364C203.926 52.2543 203.296 51.901 202.515 51.8764C201.731 51.8465 200.883 52.1513 199.972 52.7909C199.06 53.4305 198.486 54.1243 198.247 54.8724C198.005 55.6151 198.123 56.3275 198.602 57.0096ZM209.899 61.6416L202.237 65.9278L201.055 63.8142L210.37 58.603L213.884 64.8842L212.231 65.8091L209.899 61.6416ZM206.949 75.8166C206.316 74.3739 206.264 73.0317 206.793 71.7902C207.322 70.5486 208.364 69.5864 209.92 68.9037C211.458 68.2288 212.867 68.1188 214.148 68.5737C215.419 69.0253 216.37 69.9695 217.001 71.4063C217.634 72.849 217.686 74.1912 217.157 75.4328C216.631 76.6803 215.596 77.6428 214.052 78.3203C212.496 79.0031 211.082 79.1187 209.81 78.6671C208.539 78.2155 207.585 77.2654 206.949 75.8166ZM208.729 75.0358C209.066 75.8049 209.617 76.2815 210.38 76.4655C211.135 76.6463 212.025 76.5117 213.05 76.0618C214.07 75.6144 214.77 75.0476 215.152 74.3613C215.536 73.6809 215.559 72.9562 215.221 72.1871C214.886 71.424 214.339 70.9534 213.578 70.7753C212.815 70.5912 211.923 70.7228 210.904 71.1701C209.884 71.6174 209.184 72.1843 208.803 72.8706C208.419 73.551 208.394 74.2727 208.729 75.0358ZM223.066 89.3725C223.404 90.6906 223.196 91.8595 222.442 92.8792C221.689 93.8989 220.501 94.6164 218.881 95.0316C217.266 95.4452 215.884 95.3892 214.735 94.8638C213.585 94.3383 212.843 93.4228 212.509 92.1173C212.116 90.5848 212.448 89.3473 213.503 88.4048L213.491 88.3575L208.458 89.6467L207.855 87.2911L221.515 83.7917L222.104 86.0905L220.364 86.5364L220.376 86.5837C221.016 86.7221 221.579 87.0418 222.063 87.5427C222.548 88.0436 222.882 88.6535 223.066 89.3725ZM214.28 90.8872C214.481 91.6693 214.94 92.2169 215.659 92.5301C216.386 92.848 217.253 92.8777 218.263 92.6192C219.272 92.3607 220.018 91.9174 220.503 91.2893C220.988 90.6675 221.131 89.9656 220.931 89.1836C220.734 88.4141 220.269 87.8713 219.536 87.555C218.803 87.2387 217.938 87.2082 216.942 87.4635C215.945 87.7187 215.202 88.1612 214.711 88.7909C214.227 89.419 214.083 90.1178 214.28 90.8872ZM223.504 101.469C223.408 100.766 223.096 100.211 222.567 99.8037C222.032 99.3972 221.383 99.2197 220.622 99.2712L221.307 104.283C222.064 104.153 222.644 103.831 223.047 103.316C223.45 102.801 223.602 102.185 223.504 101.469ZM218.453 106.989C217.452 106.969 216.589 106.571 215.866 105.796C215.136 105.021 214.686 104.018 214.518 102.786C214.305 101.225 214.62 99.9238 215.463 98.8821C216.307 97.8468 217.561 97.2155 219.226 96.988C220.89 96.7606 222.28 97.0306 223.397 97.7979C224.513 98.5588 225.174 99.6971 225.382 101.213C225.584 102.697 225.274 103.938 224.452 104.938C223.629 105.937 222.417 106.546 220.818 106.765L220.024 106.873L219.013 99.4713L218.868 99.4912C218.016 99.6075 217.366 99.9493 216.918 100.517C216.464 101.085 216.291 101.772 216.402 102.578C216.481 103.159 216.678 103.641 216.994 104.025C217.303 104.41 217.686 104.643 218.144 104.725L218.453 106.989ZM215.372 113.298C215.33 112.003 215.593 110.939 216.158 110.106C216.731 109.267 217.529 108.782 218.554 108.652L218.63 111.014C217.695 111.285 217.246 112.026 217.285 113.236C217.306 113.887 217.459 114.39 217.744 114.745C218.023 115.095 218.39 115.262 218.845 115.247C219.808 115.216 220.268 114.517 220.223 113.151L220.174 111.618L221.872 111.564L221.92 113.047C221.958 114.225 222.416 114.8 223.295 114.771C223.698 114.758 224.013 114.605 224.238 114.311C224.475 113.997 224.585 113.557 224.566 112.991C224.548 112.432 224.416 111.98 224.171 111.636C223.925 111.286 223.593 111.085 223.174 111.033L223.1 108.72C224.099 108.798 224.897 109.209 225.494 109.952C226.092 110.701 226.41 111.691 226.45 112.921C226.492 114.235 226.258 115.262 225.748 116.002C225.244 116.728 224.533 117.106 223.615 117.135C223.069 117.153 222.586 117.016 222.166 116.723C221.739 116.431 221.453 116.033 221.307 115.529L221.228 115.532C220.941 116.909 220.162 117.618 218.893 117.659C217.865 117.692 217.032 117.315 216.395 116.528C215.757 115.741 215.416 114.664 215.372 113.298ZM211.708 120.537C211.741 120.063 211.779 119.746 211.823 119.586L213.752 119.72C213.717 119.841 213.689 120.061 213.667 120.379C213.598 121.373 214.022 122.042 214.937 122.386L215.425 122.557L226.376 119.487L226.193 122.127L217.463 124.088L217.459 124.136L225.837 127.271L225.66 129.833L214.908 125.213C213.634 124.668 212.76 124.053 212.285 123.367C211.818 122.676 211.625 121.732 211.708 120.537ZM219.065 134.537C217.456 134.143 216.303 133.639 215.606 133.025C214.801 132.312 214.501 131.382 214.706 130.235C214.765 129.908 214.85 129.652 214.963 129.467L217.03 129.837C216.947 130.001 216.887 130.189 216.849 130.4C216.763 130.881 216.978 131.29 217.493 131.627C217.925 131.909 218.619 132.169 219.576 132.406L225.033 133.73L223.683 141.276L213.176 139.396L213.602 137.012L222.244 138.559L222.797 135.473L219.065 134.537ZM217.365 145.466L213.791 144.43L213.302 146.118C213.135 146.693 213.164 147.2 213.39 147.638C213.617 148.07 213.999 148.364 214.537 148.52C215.075 148.676 215.559 148.63 215.99 148.382C216.415 148.133 216.71 147.723 216.875 147.154L217.365 145.466ZM222.916 144.554L222.242 146.88L219.147 145.983L218.576 147.952C218.229 149.147 217.628 150.006 216.771 150.53C215.922 151.05 214.95 151.151 213.856 150.834C212.762 150.517 211.995 149.911 211.556 149.018C211.118 148.118 211.073 147.072 211.419 145.877L212.665 141.582L222.916 144.554ZM214.922 161.942L216.137 158.883L207.978 155.642L208.872 153.391L217.031 156.632L218.246 153.574L220.006 154.273L216.683 162.641L214.922 161.942ZM205.932 164.158C205.591 164.817 205.491 165.462 205.633 166.093C205.776 166.724 206.133 167.188 206.705 167.484L207.425 167.857L208.409 165.618C208.951 164.373 208.829 163.547 208.043 163.14C207.662 162.942 207.279 162.938 206.895 163.128C206.513 163.312 206.193 163.655 205.932 164.158ZM204.604 162.667C205.089 161.73 205.746 161.099 206.575 160.773C207.406 160.442 208.241 160.493 209.08 160.927C209.924 161.365 210.419 162.021 210.567 162.897C210.717 163.767 210.52 164.819 209.975 166.055L208.847 168.594L209.541 168.953C210.038 169.211 210.506 169.248 210.945 169.065C211.376 168.885 211.743 168.503 212.045 167.919C212.297 167.434 212.392 166.966 212.332 166.517C212.271 166.068 212.067 165.705 211.718 165.429L212.752 163.435C213.604 163.913 214.123 164.659 214.309 165.672C214.487 166.688 214.287 167.753 213.709 168.869C213.095 170.054 212.322 170.853 211.39 171.264C210.455 171.682 209.516 171.646 208.574 171.158L202.08 167.793L203.153 165.721L204.679 166.512L204.706 166.46C204.338 165.939 204.146 165.333 204.13 164.643C204.116 163.962 204.274 163.303 204.604 162.667ZM203.897 181.216L205.697 178.461L198.348 173.659L199.672 171.632L207.022 176.433L208.822 173.678L210.408 174.714L205.483 182.252L203.897 181.216ZM194.651 181.599C194.186 182.177 193.961 182.789 193.975 183.436C193.99 184.083 194.248 184.608 194.75 185.012L195.382 185.52L196.79 183.52C197.568 182.408 197.612 181.574 196.922 181.019C196.588 180.75 196.213 180.67 195.799 180.78C195.389 180.884 195.006 181.157 194.651 181.599ZM193.645 179.874C194.306 179.052 195.075 178.564 195.952 178.409C196.833 178.248 197.641 178.464 198.377 179.056C199.117 179.652 199.473 180.394 199.444 181.281C199.419 182.164 199.017 183.156 198.239 184.259L196.629 186.524L197.238 187.014C197.674 187.365 198.126 187.494 198.593 187.402C199.051 187.311 199.486 187.009 199.898 186.497C200.241 186.071 200.427 185.632 200.457 185.179C200.486 184.727 200.358 184.331 200.071 183.992L201.479 182.242C202.219 182.879 202.581 183.713 202.563 184.743C202.535 185.774 202.128 186.779 201.34 187.758C200.503 188.797 199.588 189.427 198.593 189.646C197.593 189.87 196.681 189.649 195.854 188.984L190.155 184.398L191.618 182.58L192.957 183.657L192.994 183.612C192.736 183.028 192.668 182.397 192.789 181.717C192.911 181.046 193.196 180.432 193.645 179.874ZM158.384 211.756C159.172 211.381 159.981 211.339 160.811 211.629C161.638 211.928 162.239 212.471 162.613 213.259C162.988 214.047 163.029 214.853 162.736 215.677C162.44 216.51 161.898 217.114 161.11 217.488C160.322 217.863 159.512 217.902 158.679 217.606C157.855 217.313 157.256 216.773 156.881 215.985C156.506 215.197 156.464 214.388 156.754 213.558C157.053 212.731 157.596 212.131 158.384 211.756ZM109.664 227.71L113.208 227.768L113.545 223.926C113.665 222.586 113.955 221.598 114.414 220.961L114.416 220.883L109.778 220.807L109.664 227.71ZM117.91 216.272L117.833 220.939L116.984 220.925C116.287 221.331 115.866 222.385 115.72 224.089L115.257 229.687L107.221 229.555L107.366 220.767L105.735 220.74L105.812 216.073L108.038 216.109L107.992 218.892L115.638 219.018L115.684 216.235L117.91 216.272ZM100.287 223.153C100.606 221.527 101.056 220.352 101.637 219.628C102.312 218.791 103.227 218.448 104.383 218.6C104.712 218.643 104.971 218.717 105.161 218.821L104.887 220.902C104.72 220.828 104.53 220.777 104.317 220.749C103.832 220.685 103.434 220.918 103.121 221.448C102.859 221.893 102.632 222.599 102.439 223.565L101.368 229.078L93.768 228.077L95.1609 217.495L97.5621 217.811L96.4164 226.515L99.5243 226.924L100.287 223.153ZM85.8032 220.884L84.9944 224.194L86.8064 224.637C87.3819 224.778 87.8744 224.737 88.2837 224.515C88.7009 224.289 88.9729 223.916 89.0996 223.398C89.217 222.917 89.1405 222.49 88.87 222.115C88.5963 221.727 88.178 221.464 87.6152 221.326L85.8032 220.884ZM86.2296 219.138L87.6621 219.488L90.953 216.592L93.5997 217.239L89.8557 220.426C90.5241 220.817 90.9982 221.318 91.2778 221.929C91.5622 222.548 91.6156 223.222 91.4379 223.949C91.1722 225.037 90.5945 225.81 89.7048 226.27C88.823 226.725 87.7655 226.802 86.5322 226.5L82.2348 225.45L84.7676 215.082L87.0824 215.647L86.2296 219.138ZM73.9502 210.918C75.5193 211.57 76.5052 212.565 76.9079 213.903C77.3202 215.251 77.124 216.894 76.3193 218.83C75.1748 221.583 73.908 223.401 72.5191 224.283C71.1726 225.147 69.5478 225.223 67.6447 224.509L66.6686 224.135C65.4042 223.666 64.4778 223.461 63.8894 223.519L64.6428 221.707C65.0764 221.562 65.9614 221.74 67.298 222.239L68.2471 222.602C69.509 223.077 70.5519 223.112 71.3759 222.708C72.1463 222.33 72.9166 221.469 73.6867 220.125L73.6146 220.095C72.463 221.034 71.0937 221.173 69.5066 220.513C68.172 219.959 67.2884 219.091 66.8557 217.91C66.4195 216.72 66.5013 215.404 67.101 213.961C67.7483 212.404 68.6849 211.355 69.9109 210.814C71.1309 210.271 72.4773 210.305 73.9502 210.918ZM73.2253 212.763C72.4318 212.433 71.7049 212.452 71.0446 212.819C70.3784 213.184 69.8366 213.868 69.4193 214.872C69.0194 215.834 68.9302 216.667 69.1517 217.373C69.3706 218.084 69.8738 218.604 70.6614 218.931C71.4489 219.258 72.1691 219.248 72.8218 218.899C73.4806 218.552 74.0086 217.901 74.406 216.945C74.8233 215.941 74.9292 215.075 74.7238 214.348C74.5124 213.619 74.0129 213.09 73.2253 212.763ZM53.7236 212.692L51.6342 211.487L56.9672 202.241L59.0567 203.446L53.7236 212.692ZM62.58 211.938L64.439 208.715L62.9163 207.837C62.3974 207.538 61.8984 207.445 61.419 207.56C60.9454 207.677 60.5686 207.979 60.2889 208.464C60.0092 208.949 59.9382 209.43 60.0759 209.908C60.217 210.38 60.5441 210.764 61.0573 211.06L62.58 211.938ZM62.1406 217.547L60.0427 216.337L61.6529 213.546L59.8764 212.521C58.7993 211.9 58.1084 211.11 57.8038 210.153C57.5016 209.205 57.6351 208.237 58.2043 207.25C58.7736 206.263 59.5444 205.663 60.5167 205.45C61.4946 205.24 62.5222 205.445 63.5993 206.067L67.4737 208.301L62.1406 217.547ZM45.1913 202.496C44.9921 202.974 44.9595 203.447 45.0937 203.917C45.2316 204.414 45.5443 204.847 46.0319 205.217C46.6699 205.701 47.3696 205.84 48.1312 205.633C48.9006 205.416 49.608 204.882 50.2533 204.031C50.9143 203.16 51.2412 202.325 51.2338 201.527C51.229 200.747 50.905 200.113 50.2618 199.625C49.2712 198.873 48.3214 198.843 47.4127 199.535L45.5765 198.142C46.3648 197.351 47.2895 196.945 48.3508 196.925C49.4174 196.909 50.4589 197.286 51.4755 198.057C52.7152 198.998 53.401 200.135 53.533 201.469C53.6754 202.811 53.2331 204.159 52.2061 205.513C51.1988 206.84 50.0285 207.624 48.6952 207.863C47.3657 208.096 46.0864 207.747 44.8571 206.814C43.8249 206.031 43.1796 205.104 42.9211 204.034C42.6781 203.008 42.8202 202.029 43.3474 201.097L45.1913 202.496ZM34.4205 195.112L36.8328 197.351L42.8048 190.915L44.58 192.563L38.608 198.998L41.0203 201.237L39.7316 202.625L33.1318 196.501L34.4205 195.112ZM27.3872 190.24C26.4942 189.213 26.1558 188.075 26.372 186.826C26.5881 185.576 27.3275 184.403 28.5899 183.304C29.8474 182.211 31.1076 181.641 32.3707 181.595C33.6337 181.549 34.7074 182.034 35.5919 183.051C36.6301 184.245 36.8889 185.5 36.3681 186.816L36.4002 186.852L40.3201 183.443L41.9159 185.277L31.2762 194.532L29.7188 192.742L31.0745 191.562L31.0425 191.526C30.4081 191.689 29.7621 191.656 29.1044 191.425C28.4467 191.195 27.8743 190.8 27.3872 190.24ZM34.5601 184.945C34.0303 184.336 33.374 184.053 32.5911 184.095C31.7991 184.137 31.0101 184.5 30.2242 185.183C29.4383 185.867 28.9697 186.598 28.8186 187.377C28.6632 188.15 28.8504 188.842 29.3803 189.451C29.9015 190.05 30.5606 190.327 31.3576 190.281C32.1545 190.235 32.941 189.874 33.7172 189.199C34.4933 188.524 34.9594 187.795 35.1154 187.012C35.2665 186.234 35.0814 185.545 34.5601 184.945ZM28.9847 174.398C29.878 175.696 30.1818 177.005 29.8961 178.323C29.6105 179.642 28.7678 180.783 27.3681 181.747C25.9844 182.699 24.6211 183.072 23.2781 182.867C21.9442 182.662 20.8324 181.914 19.9428 180.622C19.0496 179.324 18.7458 178.015 19.0314 176.697C19.3134 175.372 20.1489 174.232 21.5379 173.276C22.9376 172.313 24.3044 171.933 25.6384 172.137C26.9723 172.341 28.0878 173.095 28.9847 174.398ZM27.3839 175.5C26.9077 174.808 26.2775 174.444 25.4932 174.407C24.718 174.371 23.8691 174.671 22.9467 175.306C22.0297 175.937 21.4484 176.626 21.203 177.371C20.954 178.112 21.0675 178.828 21.5437 179.52C22.0161 180.206 22.6427 180.565 23.4233 180.597C24.2076 180.634 25.0582 180.337 25.9753 179.706C26.8924 179.075 27.4736 178.386 27.719 177.641C27.9681 176.9 27.8564 176.187 27.3839 175.5ZM16.1282 170.754L23.8336 166.547L24.9942 168.672L15.6261 173.788L12.1768 167.471L13.8395 166.563L16.1282 170.754ZM19.229 156.607C19.8455 158.056 19.8823 159.399 19.3394 160.635C18.7965 161.87 17.7431 162.82 16.1794 163.485C14.6337 164.142 13.2233 164.236 11.9483 163.767C10.6819 163.301 9.74168 162.346 9.12771 160.902C8.5112 159.452 8.47441 158.109 9.01734 156.874C9.55773 155.632 10.6038 154.682 12.1555 154.022C13.7193 153.357 15.1343 153.258 16.4008 153.724C17.6672 154.19 18.61 155.151 19.229 156.607ZM17.4406 157.367C17.112 156.594 16.5671 156.111 15.806 155.919C15.0534 155.729 14.1618 155.854 13.1313 156.292C12.1068 156.727 11.4 157.286 11.0108 157.968C10.619 158.644 10.5875 159.368 10.9161 160.141C11.2422 160.908 11.7845 161.385 12.5431 161.572C13.3043 161.765 14.1971 161.643 15.2216 161.208C16.2461 160.772 16.953 160.213 17.3421 159.531C17.7339 158.855 17.7667 158.134 17.4406 157.367ZM3.24444 142.868C2.92277 141.546 3.14489 140.379 3.91079 139.369C4.67669 138.358 5.87252 137.655 7.49827 137.26C9.1177 136.866 10.4989 136.939 11.6419 137.478C12.7848 138.017 13.5156 138.942 13.8342 140.251C14.2082 141.788 13.8617 143.022 12.7947 143.951L12.8063 143.999L17.8543 142.771L18.4292 145.133L4.72731 148.467L4.16632 146.161L5.91226 145.736L5.90072 145.689C5.26213 145.543 4.70363 145.216 4.22523 144.71C3.74682 144.203 3.41989 143.589 3.24444 142.868ZM12.0478 141.46C11.8569 140.675 11.4041 140.122 10.6893 139.8C9.96654 139.473 9.09911 139.433 8.08697 139.68C7.07483 139.926 6.32283 140.36 5.83097 140.982C5.33758 141.598 5.18631 142.298 5.37715 143.083C5.56492 143.854 6.02332 144.403 6.75237 144.728C7.48141 145.053 8.34567 145.094 9.34516 144.851C10.3446 144.608 11.0935 144.174 11.5917 143.551C12.0835 142.928 12.2356 142.231 12.0478 141.46ZM2.93904 130.794C3.02868 131.498 3.33602 132.056 3.86105 132.468C4.39253 132.88 5.03938 133.063 5.80157 133.019L5.16257 128.001C4.40379 128.123 3.82068 128.441 3.41325 128.952C3.00583 129.463 2.84775 130.077 2.93904 130.794ZM8.04046 125.321C9.04185 125.351 9.90078 125.757 10.6172 126.538C11.3401 127.319 11.7801 128.326 11.9372 129.56C12.1362 131.123 11.8094 132.421 10.9566 133.455C10.103 134.483 8.84305 135.102 7.17682 135.315C5.51058 135.527 4.12261 135.244 3.01291 134.467C1.90402 133.695 1.25295 132.551 1.05968 131.033C0.870534 129.548 1.1919 128.309 2.02378 127.317C2.85567 126.325 4.07243 125.728 5.67408 125.524L6.46845 125.422L7.41215 132.833L7.55746 132.815C8.40995 132.706 9.06286 132.37 9.5162 131.807C9.976 131.243 10.1545 130.558 10.0517 129.751C9.97768 129.169 9.78478 128.685 9.47299 128.298C9.16766 127.911 8.78637 127.674 8.32912 127.588L8.04046 125.321ZM11.1819 119.042C11.2111 120.337 10.9388 121.398 10.3649 122.225C9.78458 123.059 8.98135 123.536 7.95517 123.657L7.9018 121.294C8.84013 121.032 9.29563 120.295 9.26828 119.085C9.25358 118.434 9.10543 117.929 8.82383 117.571C8.54888 117.219 8.18361 117.048 7.72799 117.059C6.7647 117.08 6.29848 117.775 6.32936 119.141L6.36398 120.674L4.66519 120.713L4.63168 119.229C4.60507 118.051 4.15242 117.471 3.27374 117.491C2.87019 117.5 2.5545 117.651 2.32665 117.942C2.08623 118.254 1.97241 118.693 1.9852 119.259C1.99785 119.819 2.1253 120.272 2.36755 120.618C2.60995 120.971 2.94017 121.175 3.3582 121.231L3.41046 123.544C2.41212 123.456 1.61797 123.038 1.028 122.289C0.437877 121.534 0.128925 120.542 0.10114 119.311C0.0714426 117.997 0.315294 116.972 0.832693 116.238C1.34388 115.516 2.05834 115.145 2.97607 115.124C3.52281 115.112 4.00466 115.254 4.42162 115.551C4.84509 115.847 5.12764 116.248 5.26929 116.753L5.34739 116.751C5.64846 115.377 6.43361 114.675 7.70281 114.646C8.7312 114.623 9.56041 115.008 10.1905 115.801C10.8205 116.595 11.151 117.675 11.1819 119.042ZM14.9151 111.836C14.8779 112.31 14.8367 112.626 14.7916 112.786L12.8639 112.635C12.8995 112.513 12.9298 112.294 12.9548 111.976C13.0327 110.983 12.6153 110.31 11.7026 109.958L11.2168 109.782L0.237979 112.751L0.44506 110.112L9.19319 108.232L9.19701 108.184L0.848524 104.972L1.04949 102.411L11.758 107.131C13.0269 107.688 13.8955 108.311 14.3638 109.001C14.8251 109.697 15.0088 110.642 14.9151 111.836ZM7.6856 97.7695C9.29143 98.1778 10.4401 98.6921 11.1315 99.3125C11.93 100.033 12.2215 100.965 12.0059 102.11C11.9445 102.437 11.8567 102.692 11.7426 102.876L9.67925 102.487C9.76295 102.324 9.82468 102.137 9.86442 101.926C9.95475 101.446 9.74389 101.035 9.23182 100.694C8.8021 100.408 8.11021 100.142 7.15615 99.8957L1.71067 98.5228L3.12887 90.9891L13.6185 92.9638L13.1704 95.3439L4.54266 93.7197L3.96273 96.8004L7.6856 97.7695ZM9.49139 86.8493L13.0539 87.9225L13.561 86.2394C13.7338 85.666 13.7097 85.1589 13.4889 84.7184C13.2661 84.2842 12.8867 83.9863 12.3506 83.8248C11.8145 83.6633 11.3296 83.7042 10.8959 83.9475C10.4685 84.1927 10.1693 84.5989 9.99844 85.1662L9.49139 86.8493ZM3.93052 87.7034L4.62912 85.3845L7.71479 86.3141L8.30635 84.3505C8.66504 83.1598 9.27558 82.3068 10.138 81.7915C10.9923 81.2805 11.9648 81.1894 13.0557 81.518C14.1466 81.8467 14.907 82.4599 15.3369 83.3577C15.7648 84.2618 15.7995 85.3092 15.4408 86.4998L14.1506 90.7823L3.93052 87.7034ZM12.1038 70.3989L10.8577 73.4449L18.9834 76.7691L18.0664 79.0106L9.94074 75.6865L8.69464 78.7325L6.94117 78.0151L10.3504 69.6816L12.1038 70.3989ZM21.1228 68.2744C21.4717 67.6194 21.5786 66.9756 21.4435 66.343C21.3084 65.7104 20.9564 65.2426 20.3875 64.9395L19.6721 64.5585L18.6622 66.7867C18.106 68.0247 18.2186 68.8519 19.0001 69.2681C19.3793 69.4702 19.7621 69.4786 20.1484 69.2934C20.5317 69.114 20.8565 68.7743 21.1228 68.2744ZM22.4338 69.7806C21.938 70.7114 21.2738 71.335 20.4414 71.6514C19.606 71.9735 18.7716 71.9126 17.9385 71.4688C17.0996 71.0219 16.6113 70.3598 16.4738 69.4825C16.3332 68.611 16.5423 67.5606 17.1012 66.3314L18.2586 63.8055L17.5691 63.4382C17.0749 63.175 16.6071 63.1323 16.1657 63.3102C15.733 63.4855 15.3621 63.8632 15.0529 64.4436C14.7958 64.9263 14.695 65.3926 14.7503 65.8425C14.8057 66.2925 15.006 66.6574 15.3512 66.9371L14.2952 68.9195C13.4486 68.4316 12.9379 67.6801 12.7632 66.665C12.5972 65.6471 12.8096 64.5837 13.4004 63.4748C14.0278 62.2968 14.8098 61.5073 15.7464 61.1063C16.686 60.6995 17.6241 60.7455 18.5607 61.2445L25.0163 64.6833L23.919 66.7433L22.402 65.9352L22.3745 65.9869C22.7367 66.5118 22.9219 67.1195 22.9303 67.8099C22.936 68.4916 22.7705 69.1485 22.4338 69.7806ZM23.331 51.2438L21.5043 53.9813L28.807 58.8544L27.4626 60.8689L20.16 55.9958L18.3332 58.7333L16.7574 57.6817L21.7552 50.1922L23.331 51.2438ZM32.5806 50.9513C33.0515 50.3776 33.2829 49.7674 33.2748 49.1206C33.2666 48.4738 33.0135 47.9459 32.5153 47.537L31.8888 47.0227L30.4605 49.0089C29.6718 50.1134 29.6196 50.9466 30.304 51.5083C30.6361 51.781 31.0098 51.8645 31.425 51.7589C31.836 51.6583 32.2212 51.3891 32.5806 50.9513ZM33.57 52.6858C32.9008 53.501 32.1271 53.9819 31.2487 54.1284C30.3662 54.28 29.5602 54.0563 28.8305 53.4574C28.0958 52.8543 27.7472 52.1091 27.7848 51.2219C27.8183 50.3397 28.2299 49.3509 29.0195 48.2556L30.6509 46.0065L30.047 45.5109C29.6142 45.1556 29.1639 45.0218 28.6961 45.1095C28.2374 45.1962 27.7995 45.4937 27.3823 46.002C27.0353 46.4247 26.8448 46.8621 26.8106 47.3141C26.7764 47.7662 26.9011 48.1633 27.1845 48.5055L25.7594 50.2416C25.0253 49.5968 24.6723 48.7596 24.7005 47.7299C24.7379 46.6993 25.1552 45.6984 25.9524 44.7272C26.7992 43.6956 27.7211 43.0752 28.7182 42.8661C29.7195 42.652 30.6302 42.8815 31.4505 43.5548L37.1041 48.1957L35.6233 49.9997L34.2948 48.9092L34.2576 48.9545C34.5095 49.5403 34.5717 50.1726 34.4442 50.8512C34.3158 51.5207 34.0244 52.1322 33.57 52.6858ZM65.0307 23.1868C64.2558 23.5876 63.4487 23.6569 62.6095 23.3947C61.773 23.1237 61.1543 22.6007 60.7536 21.8258C60.3528 21.051 60.285 20.2468 60.5502 19.4133C60.8182 18.571 61.3397 17.9495 62.1146 17.5487C62.8895 17.1479 63.698 17.0815 64.5403 17.3495C65.3738 17.6148 65.9909 18.1348 66.3917 18.9097C66.7925 19.6846 66.8618 20.4917 66.5995 21.3309C66.3285 22.1674 65.8056 22.7861 65.0307 23.1868Z" fill="white"/>
</svg>
