<svg width="32" height="32" viewBox="0 0 32 32" fill="none" xmlns="http://www.w3.org/2000/svg">
<path d="M16.0013 5.33325L6.66797 9.33325L16.0013 13.3333L25.3346 9.33325L16.0013 5.33325Z" stroke="#121213" stroke-width="2" stroke-linejoin="round"/>
<path fill-rule="evenodd" clip-rule="evenodd" d="M25.5312 15.5396C25.7149 15.6183 25.8348 15.7997 25.835 15.9995C25.835 16.1994 25.7148 16.3806 25.5312 16.4595L16.1982 20.4595C16.0727 20.5132 15.9303 20.5131 15.8047 20.4595L6.4707 16.4595C6.28693 16.3807 6.16797 16.1995 6.16797 15.9995C6.16814 15.7997 6.28706 15.6183 6.4707 15.5396L11.2715 13.4819L12.541 14.0259L7.9375 15.9995L16.001 19.4546L24.0645 15.9995L19.46 14.0259L20.7305 13.4819L25.5312 15.5396Z" fill="#121213"/>
<path fill-rule="evenodd" clip-rule="evenodd" d="M25.5312 22.2065C25.7149 22.2854 25.8349 22.4666 25.835 22.6665C25.835 22.8664 25.7149 23.0476 25.5312 23.1265L16.1982 27.1265C16.0727 27.1802 15.9302 27.1801 15.8047 27.1265L6.4707 23.1265C6.28693 23.0476 6.16797 22.8665 6.16797 22.6665C6.16801 22.4666 6.28696 22.2853 6.4707 22.2065L11.2725 20.1479L12.542 20.6919L7.9375 22.6665L16.001 26.1216L24.0645 22.6665L19.459 20.6919L20.7295 20.1479L25.5312 22.2065Z" fill="#121213"/>
</svg>
