<svg width="32" height="32" viewBox="0 0 32 32" fill="none" xmlns="http://www.w3.org/2000/svg">
<rect x="4" y="8" width="24" height="20" rx="2" stroke="#121213" stroke-width="2"/>
<path d="M4 12C4 10.1144 4 9.17157 4.58579 8.58579C5.17157 8 6.11438 8 8 8H24C25.8856 8 26.8284 8 27.4142 8.58579C28 9.17157 28 10.1144 28 12V13.3333H4V12Z" fill="#121213"/>
<path d="M9.33203 4L9.33203 8" stroke="#121213" stroke-width="2" stroke-linecap="round"/>
<path d="M22.668 4L22.668 8" stroke="#121213" stroke-width="2" stroke-linecap="round"/>
<rect x="9.33203" y="16" width="5.33333" height="2.66667" rx="0.5" fill="#121213"/>
<rect x="9.33203" y="21.3333" width="5.33333" height="2.66667" rx="0.5" fill="#121213"/>
<rect x="17.332" y="16" width="5.33333" height="2.66667" rx="0.5" fill="#121213"/>
<rect x="17.332" y="21.3333" width="5.33333" height="2.66667" rx="0.5" fill="#121213"/>
</svg>
