<svg width="32" height="32" viewBox="0 0 32 32" fill="none" xmlns="http://www.w3.org/2000/svg">
<path fill-rule="evenodd" clip-rule="evenodd" d="M15.9531 6.16784C17.4295 6.16082 18.8944 6.48536 20.2363 7.12584C21.9513 7.94455 23.393 9.24368 24.3857 10.8641C25.3782 12.4845 25.8798 14.3582 25.8301 16.2577C25.7803 18.1574 25.1806 20.0029 24.1045 21.5692C23.0283 23.1353 21.521 24.3561 19.7656 25.0839C18.0102 25.8115 16.0815 26.0152 14.2129 25.6698C12.3442 25.3243 10.6147 24.4449 9.23535 23.1376C8.53254 22.4714 7.93602 21.7084 7.46094 20.8758L8.46484 20.6073C8.86789 21.2666 9.35719 21.8739 9.92383 22.411C11.1629 23.5854 12.7158 24.376 14.3945 24.6864C16.0732 24.9967 17.8058 24.8137 19.3828 24.16C20.9599 23.5062 22.3145 22.4099 23.2812 21.0028C24.2479 19.5958 24.7863 17.9379 24.8311 16.2313C24.8756 14.5251 24.4246 12.8421 23.5332 11.3866C22.6415 9.93095 21.3462 8.76363 19.8057 8.02819C18.6802 7.49101 17.4583 7.20162 16.2217 7.17077L15.9531 6.16784Z" fill="#121213"/>
<path d="M12.8092 4.087C12.6855 3.62542 12.6237 3.39463 12.4308 3.2927C12.2379 3.19078 12.0236 3.2658 11.5951 3.41585C10.2616 3.88276 9.00873 4.55937 7.88448 5.42204C6.49535 6.48795 5.32978 7.81704 4.4543 9.33341C3.57882 10.8498 3.01058 12.5238 2.78204 14.2597C2.59707 15.6647 2.63753 17.088 2.89992 18.4763C2.98424 18.9224 3.02641 19.1455 3.21113 19.2616C3.39585 19.3777 3.62664 19.3159 4.08822 19.1922L15.0354 16.2589C15.4907 16.1369 15.7184 16.0759 15.8219 15.8965C15.9255 15.7172 15.8645 15.4895 15.7425 15.0342L12.8092 4.087Z" fill="#121213"/>
</svg>
