<svg width="32" height="32" viewBox="0 0 32 32" fill="none" xmlns="http://www.w3.org/2000/svg">
<path d="M20.1885 7.42383C20.613 7.46921 20.9517 7.66391 21.2207 7.86914C21.505 8.08606 21.8098 8.39377 22.123 8.70703L23.2939 9.87891L23.3154 9.89941L23.3242 9.91016C23.6269 10.2127 23.922 10.5062 24.1318 10.7812C24.3664 11.0886 24.5869 11.4864 24.5869 12C24.5869 12.5136 24.3664 12.9114 24.1318 13.2188C23.9149 13.5031 23.6073 13.8078 23.2939 14.1211L13.1006 24.3154C12.9435 24.4725 12.7393 24.6886 12.4756 24.8379C12.2119 24.9872 11.9216 25.0506 11.7061 25.1045L7.71875 26.1016C7.57088 26.1385 7.34947 26.1968 7.15527 26.2158C6.94864 26.236 6.49665 26.2425 6.12793 25.874C5.75942 25.5055 5.76595 25.0536 5.78613 24.8467C5.80514 24.6523 5.86341 24.4301 5.90039 24.2822L6.89648 20.2949C6.95037 20.0794 7.01475 19.7891 7.16406 19.5254L7.28613 19.3389C7.41702 19.1631 7.56776 19.0191 7.68555 18.9014L17.8799 8.70703C18.1932 8.39369 18.4979 8.08607 18.7822 7.86914C19.0896 7.63466 19.4875 7.41416 20.001 7.41406L20.1885 7.42383Z" stroke="#121213" stroke-width="2"/>
<path d="M16.668 9.99992L20.668 7.33325L24.668 11.3333L22.0013 15.3333L16.668 9.99992Z" fill="#121213"/>
</svg>
