<svg width="24" height="24" viewBox="0 0 24 24" fill="none" xmlns="http://www.w3.org/2000/svg">
<path d="M8.3 15.7C8.5 15.9 8.7 16 9 16C9.3 16 9.5 15.9 9.7 15.7L12 13.4L14.3 15.7C14.5 15.9 14.8 16 15 16C15.2 16 15.5 15.9 15.7 15.7C16.1 15.3 16.1 14.7 15.7 14.3L13.4 12L15.7 9.7C16.1 9.3 16.1 8.7 15.7 8.3C15.3 7.9 14.7 7.9 14.3 8.3L12 10.6L9.7 8.3C9.3 7.9 8.7 7.9 8.3 8.3C7.9 8.7 7.9 9.3 8.3 9.7L10.6 12L8.3 14.3C7.9 14.7 7.9 15.3 8.3 15.7Z" fill="#F53939"/>
<path d="M12 21C17 21 21 17 21 12C21 7 17 3 12 3C7 3 3 7 3 12C3 17 7 21 12 21ZM12 5C15.9 5 19 8.1 19 12C19 15.9 15.9 19 12 19C8.1 19 5 15.9 5 12C5 8.1 8.1 5 12 5Z" fill="#F53939"/>
</svg>
