<svg width="26" height="26" viewBox="0 0 26 26" fill="none" xmlns="http://www.w3.org/2000/svg">
<g clip-path="url(#clip0_111_1852)">
<path fill-rule="evenodd" clip-rule="evenodd" d="M13 26C20.1797 26 26 20.1797 26 13C26 5.82029 20.1797 0 13 0C5.82029 0 0 5.82029 0 13C0 20.1797 5.82029 26 13 26ZM8.68522 8.65613C8.68522 6.2824 10.6343 4.33327 13.008 4.33327C15.3818 4.33327 17.3309 6.2824 17.3309 8.65613C17.3309 11.0299 15.3818 12.979 13.008 12.979C10.6343 12.979 8.68522 11.0299 8.68522 8.65613ZM14.8607 8.65613C14.8607 7.61882 14.0454 6.80347 13.008 6.80347C11.9708 6.80347 11.1554 7.61882 11.1554 8.65613C11.1554 9.69337 11.9708 10.5088 13.008 10.5088C14.0454 10.5088 14.8607 9.69337 14.8607 8.65613ZM8.69968 14.407C8.82993 13.8474 9.32206 13.4517 9.89137 13.447C10.0988 13.4422 10.3063 13.4952 10.4896 13.5917C11.2567 13.9873 12.101 14.214 13.008 14.214C13.9151 14.214 14.7594 13.9873 15.5265 13.5917C16.1344 13.2781 16.8822 13.5145 17.191 14.1224C17.5046 14.7303 17.2682 15.4733 16.6603 15.7869C16.2454 16.004 15.7967 16.1728 15.3335 16.3176L17.0415 18.3632C17.3405 18.7009 17.4274 19.1738 17.2778 19.5935C17.1282 20.0181 16.7616 20.322 16.3178 20.3992C15.8739 20.4716 15.4251 20.2979 15.1502 19.9457L13.008 17.379L10.866 19.9457C10.5909 20.2979 10.1423 20.4716 9.69841 20.3992C9.25454 20.322 8.88786 20.0181 8.73827 19.5935C8.58869 19.1738 8.67555 18.7009 8.97471 18.3632L10.6826 16.3176C10.2195 16.1728 9.77072 16.004 9.35098 15.7869C8.84439 15.5312 8.57423 14.9619 8.69968 14.407Z" fill="#121213"/>
</g>
<defs>
<clipPath id="clip0_111_1852">
<rect width="26" height="26" fill="white"/>
</clipPath>
</defs>
</svg>
