<svg width="26" height="26" viewBox="0 0 26 26" fill="none" xmlns="http://www.w3.org/2000/svg">
<g clip-path="url(#clip0_111_1848)">
<path fill-rule="evenodd" clip-rule="evenodd" d="M13 26C20.1797 26 26 20.1797 26 13C26 5.82029 20.1797 0 13 0C5.82029 0 0 5.82029 0 13C0 20.1797 5.82029 26 13 26ZM17.6832 19.7183C17.8267 19.5334 17.9146 19.3073 17.9353 19.0691C18.0599 18.4301 20.0882 7.78009 20.2128 6.61577C20.3374 5.45144 19.2043 5.79728 18.7737 5.9301C18.3432 6.06292 5.55081 11.2228 4.82564 11.6129C4.68697 11.6729 4.56718 11.7733 4.48026 11.9022C4.39336 12.0312 4.34292 12.1835 4.33462 12.3415C4.32632 12.4996 4.36051 12.6569 4.43338 12.7952C4.50625 12.9335 4.61472 13.0472 4.74624 13.1231C5.25614 13.3348 8.68936 14.419 8.68936 14.419L16.2924 9.8371L10.7176 15.6204L9.94719 19.7512C9.95646 19.7917 9.96767 19.8317 9.98108 19.8708C10.0423 19.9643 10.1215 20.0431 10.2133 20.1023C10.3051 20.1615 10.4076 20.2 10.5142 20.2149C10.6209 20.2299 10.7295 20.2212 10.8328 20.1893C10.9361 20.1575 11.0319 20.1033 11.1141 20.03C11.3634 19.7644 12.7571 17.1724 12.7571 17.1724C12.7571 17.1724 14.6833 18.6647 15.9183 19.7022C16.0589 19.8897 16.2495 20.0285 16.4654 20.1005C16.6814 20.1727 16.9127 20.1748 17.1297 20.1066C17.3468 20.0385 17.5395 19.9032 17.6832 19.7183Z" fill="#121213"/>
</g>
<defs>
<clipPath id="clip0_111_1848">
<rect width="26" height="26" fill="white"/>
</clipPath>
</defs>
</svg>
