<svg width="26" height="26" viewBox="0 0 26 26" fill="none" xmlns="http://www.w3.org/2000/svg">
<g clip-path="url(#clip0_111_1850)">
<path fill-rule="evenodd" clip-rule="evenodd" d="M13 26C20.1796 26 26 20.1798 26 13C26 5.82021 20.1796 0 13 0C5.8204 0 0 5.82021 0 13C0 20.1798 5.8204 26 13 26ZM20.7565 16.2771C20.9064 16.4877 20.9623 16.6042 20.9802 16.6342C21.5186 17.5268 20.3831 17.5971 20.3831 17.5971L18.2122 17.6274C18.2122 17.6274 17.7461 17.7199 17.1327 17.2984C16.8118 17.0779 16.498 16.7183 16.1992 16.3755C15.7422 15.8515 15.3197 15.3671 14.959 15.4814C14.3536 15.6734 14.373 16.9764 14.373 16.9764C14.373 16.9764 14.3755 17.097 14.3378 17.222C14.318 17.2867 14.2874 17.3525 14.2402 17.4031C14.0906 17.5645 13.7971 17.5971 13.7971 17.5971H12.8262C12.8262 17.5971 10.6831 17.7261 8.79466 15.7606C6.73684 13.6165 4.91904 9.36382 4.91904 9.36382C4.91904 9.36382 4.8143 9.08546 4.92816 8.95042C5.05591 8.79905 5.40424 8.78889 5.40424 8.78889L7.72629 8.77467C7.72629 8.77467 7.94568 8.81116 8.10199 8.92596C8.23095 9.02046 8.3031 9.19718 8.3031 9.19718C8.3031 9.19718 8.6788 10.1469 9.17556 11.0051C10.1455 12.682 10.5978 13.0488 10.9279 12.8689C11.4083 12.6068 11.2639 10.4992 11.2639 10.4992C11.2639 10.4992 11.273 9.73351 11.0223 9.39315C10.8283 9.12909 10.4626 9.05198 10.301 9.03053C10.1701 9.01331 10.3844 8.70959 10.6628 8.5735C11.0802 8.3694 11.8185 8.35729 12.6902 8.36639C13.3694 8.37354 13.5645 8.4162 13.8308 8.48006C14.4472 8.62867 14.4278 9.10569 14.3865 10.1354C14.3743 10.4427 14.36 10.7989 14.36 11.2104C14.36 11.7832 14.256 12.5906 14.6694 12.8578C14.8475 12.9726 15.2832 12.875 16.371 11.0275C16.8868 10.1519 17.274 9.12202 17.274 9.12202C17.274 9.12202 17.3581 8.93929 17.4894 8.85991C17.6243 8.77979 17.8052 8.80417 17.8052 8.80417L20.2466 8.78995C20.2466 8.78995 20.9813 8.70261 21.1 9.0337C21.2249 9.38104 20.8258 10.1935 19.8273 11.5242C18.8791 12.7878 18.4182 13.252 18.4614 13.6632C18.4927 13.9631 18.7922 14.2346 19.3663 14.7672C20.1328 15.4785 20.5414 15.9746 20.7565 16.2771Z" fill="#121213"/>
</g>
<defs>
<clipPath id="clip0_111_1850">
<rect width="26" height="26" fill="white"/>
</clipPath>
</defs>
</svg>
