<svg width="59" height="59" viewBox="0 0 59 59" fill="none" xmlns="http://www.w3.org/2000/svg">
<path d="M34.442 58.9974C39.8469 58.758 44.6725 56.602 48.3963 52.7642C58.2665 42.5884 58.0766 23.4094 58.0225 21.2881L58.0206 1.28718C58.0206 0.576658 57.4439 0 56.7334 0H36.9816C36.2711 0 35.6944 0.576658 35.6944 1.28718V21.0397C35.6944 21.7502 36.2711 22.3268 36.9816 22.3268H47.0763C47.075 23.9764 46.8749 38.6155 40.5207 45.1454C38.801 46.9127 36.7647 47.8581 34.2946 48.0313C33.6195 48.0789 33.0981 48.6395 33.0981 49.3152V57.7109C33.0981 58.0623 33.2417 58.397 33.4952 58.6409C33.7488 58.8842 34.0861 59.0193 34.442 58.9974Z" fill="#E82FE5"/>
<path d="M1.36438 58.6415C1.6186 58.8842 1.94812 59.0193 2.31175 58.9974C7.71663 58.758 12.5423 56.602 16.2655 52.7642C26.1356 42.5891 25.9457 23.4094 25.8917 21.2881L25.8904 1.28718C25.8904 0.576658 25.3137 0 24.6032 0H4.85072C4.14019 0 3.56354 0.576658 3.56354 1.28718V21.0397C3.56354 21.7502 4.14019 22.3268 4.85072 22.3268H14.9448C14.9422 23.9764 14.7427 38.6155 8.38983 45.1454C6.67015 46.9127 4.63383 47.8581 2.16372 48.0313C1.48924 48.0789 0.967285 48.6395 0.967285 49.3152V57.7109C0.967285 58.0623 1.11016 58.3982 1.36438 58.6415Z" fill="#E82FE5"/>
</svg>
