<svg width="40" height="40" viewBox="0 0 40 40" fill="none" xmlns="http://www.w3.org/2000/svg">
<g clip-path="url(#clip0_940_3985)">
<path d="M20 27.9999C24.4182 27.9999 27.9999 24.4182 27.9999 20C27.9999 15.5818 24.4182 12.0001 20 12.0001C15.5818 12.0001 12.0001 15.5818 12.0001 20C12.0001 24.4182 15.5818 27.9999 20 27.9999Z" fill="white"/>
<path d="M38 18.0002H35.8C34.8001 10.8002 29.2001 5.00026 22.0002 4.20027V2.00029C22.0002 0.800299 21.2002 0.000305176 20.0002 0.000305176C18.8002 0.000305176 18.0002 0.800299 18.0002 2.00029V4.20027C10.8002 5.00026 5.00029 10.8002 4.2003 18.0002H2.00032C0.800329 18.0002 0.000335693 18.8002 0.000335693 20.0001C0.000335693 21.2001 0.800329 22.0001 2.00032 22.0001H4.2003C5.20029 29.2001 10.8002 35 18.0002 35.8V38C18.0002 39.2 18.8002 40 20.0002 40C21.2002 40 22.0002 39.2 22.0002 38V35.8C29.2001 34.8 35.0001 29.2001 35.8 22.0001H38C39.2 22.0001 40 21.2001 40 20.0001C40 18.8002 39.2 18.0002 38 18.0002ZM31.8001 22.0001C31.0001 27.0001 27.0001 31.0001 22.0002 31.8C22.0002 30.8001 21.0002 30.0001 20.0002 30.0001C19.0002 30.0001 18.2002 30.8001 18.0002 31.8C13.0002 31.0001 9.00026 27.0001 8.20027 22.0001C9.20026 22.0001 10.0003 21.0001 10.0003 20.0001C10.0003 19.0002 9.20026 18.2002 8.20027 18.0002C9.00026 13.0002 13.0002 9.00023 18.0002 8.20024C18.0002 9.20023 19.0002 10.0002 20.0002 10.0002C21.0002 10.0002 21.8002 9.20023 22.0002 8.20024C27.0001 9.00023 31.0001 13.0002 31.8001 18.0002C30.8001 18.0002 30.0001 19.0002 30.0001 20.0001C30.0001 21.0001 30.8001 21.8001 31.8001 22.0001Z" fill="white"/>
</g>
<defs>
<clipPath id="clip0_940_3985">
<rect width="40" height="40" fill="white"/>
</clipPath>
</defs>
</svg>
