<svg width="50" height="40" viewBox="0 0 50 40" fill="none" xmlns="http://www.w3.org/2000/svg">
<g clip-path="url(#clip0_940_3930)">
<path d="M21.7891 39.9609L17.0234 38.5781C16.5234 38.4375 16.2422 37.9141 16.3828 37.4141L27.0469 0.679682C27.1875 0.179682 27.7109 -0.101568 28.2109 0.0390574L32.9766 1.42187C33.4766 1.56249 33.7578 2.08593 33.6172 2.58593L22.9531 39.3203C22.8047 39.8203 22.2891 40.1094 21.7891 39.9609ZM12.8828 31.1953L16.2812 27.5703C16.6406 27.1875 16.6172 26.5781 16.2188 26.2266L9.14063 20L16.2188 13.7734C16.6172 13.4219 16.6484 12.8125 16.2812 12.4297L12.8828 8.80468C12.5312 8.42968 11.9375 8.40624 11.5547 8.76562L0.296875 19.3125C-0.101563 19.6797 -0.101563 20.3125 0.296875 20.6797L11.5547 31.2344C11.9375 31.5937 12.5312 31.5781 12.8828 31.1953ZM38.4453 31.2422L49.7031 20.6875C50.1016 20.3203 50.1016 19.6875 49.7031 19.3203L38.4453 8.75781C38.0703 8.40624 37.4766 8.42187 37.1172 8.79687L33.7188 12.4219C33.3594 12.8047 33.3828 13.4141 33.7812 13.7656L40.8594 20L33.7812 26.2266C33.3828 26.5781 33.3516 27.1875 33.7188 27.5703L37.1172 31.1953C37.4688 31.5781 38.0625 31.5937 38.4453 31.2422Z" fill="white"/>
</g>
<defs>
<clipPath id="clip0_940_3930">
<rect width="50" height="40" fill="white"/>
</clipPath>
</defs>
</svg>
