<svg width="40" height="40" viewBox="0 0 40 40" fill="none" xmlns="http://www.w3.org/2000/svg">
<g clip-path="url(#clip0_940_3942)">
<path d="M40 0H0V40H40V0Z" fill="#E5E5E5"/>
<path d="M40 0H0V4H40V0Z" fill="white"/>
<path d="M40 38H0V40H40V38Z" fill="white"/>
<path d="M3.14285 2.85717C2.68571 2.85717 2.28571 2.45717 2.28571 2.00003C2.28571 1.54288 2.68571 1.14288 3.14285 1.14288C3.59999 1.14288 3.99999 1.54288 3.99999 2.00003C3.99999 2.45717 3.59999 2.85717 3.14285 2.85717Z" fill="#AFAFAF" fill-opacity="0.1"/>
<path d="M7.14285 2.85717C6.68571 2.85717 6.28571 2.45717 6.28571 2.00003C6.28571 1.54288 6.68571 1.14288 7.14285 1.14288C7.59999 1.14288 7.99999 1.54288 7.99999 2.00003C7.99999 2.45717 7.59999 2.85717 7.14285 2.85717Z" fill="#AFAFAF" fill-opacity="0.1"/>
<path d="M11.1428 2.85717C10.6857 2.85717 10.2857 2.45717 10.2857 2.00003C10.2857 1.54288 10.6857 1.14288 11.1428 1.14288C11.6 1.14288 12 1.54288 12 2.00003C12 2.45717 11.6 2.85717 11.1428 2.85717Z" fill="#AFAFAF" fill-opacity="0.1"/>
<path d="M36.5714 4H3.42856V38H36.5714V4Z" fill="#E5E5E5"/>
<path d="M26.2857 12H13.7143V29.1429H26.2857V12Z" fill="white"/>
<path d="M12.5714 12H4.57141V13.1429H12.5714V12Z" fill="white"/>
<path d="M12.5714 14.2857H4.57141V15.4286H12.5714V14.2857Z" fill="white"/>
<path d="M12.5714 16.5714H4.57141V17.7143H12.5714V16.5714Z" fill="white"/>
<path d="M12.5714 18.8571H4.57141V20H12.5714V18.8571Z" fill="white"/>
<path d="M12.5714 30.2857H4.57141V31.4286H12.5714V30.2857Z" fill="white"/>
<path d="M12.5714 32.5714H4.57141V33.7143H12.5714V32.5714Z" fill="white"/>
<path d="M12.5714 34.8571H4.57141V36H12.5714V34.8571Z" fill="white"/>
<path d="M26.2857 30.2857H13.7143V36H26.2857V30.2857Z" fill="white"/>
<path d="M12.5714 21.1429H4.57141V29.1429H12.5714V21.1429Z" fill="white"/>
<path d="M35.4286 5.14288H4.57141V10.8572H35.4286V5.14288Z" fill="white"/>
<path d="M35.4286 12H27.4286V13.1429H35.4286V12Z" fill="white"/>
<path d="M30.8571 14.2857H27.4286V15.4286H30.8571V14.2857Z" fill="white"/>
<path d="M30.8571 14.2857H27.4286V15.4286H30.8571V14.2857Z" fill="white"/>
<path d="M35.4286 14.2857H32V15.4286H35.4286V14.2857Z" fill="white"/>
<path d="M30.8571 16.5714H27.4286V17.7143H30.8571V16.5714Z" fill="white"/>
<path d="M35.4286 16.5714H32V17.7143H35.4286V16.5714Z" fill="white"/>
<path d="M30.8571 18.8571H27.4286V20H30.8571V18.8571Z" fill="white"/>
<path d="M35.4286 18.8571H32V20H35.4286V18.8571Z" fill="white"/>
</g>
<defs>
<clipPath id="clip0_940_3942">
<rect width="40" height="40" fill="white"/>
</clipPath>
</defs>
</svg>
