<svg width="40" height="40" viewBox="0 0 40 40" fill="none" xmlns="http://www.w3.org/2000/svg">
<g clip-path="url(#clip0_940_3903)">
<path d="M22.7273 38.6364H20.9091V35H14.5455V38.6364H12.7273C12.6067 38.6364 12.4911 38.6843 12.4059 38.7695C12.3206 38.8547 12.2727 38.9704 12.2727 39.0909C12.2727 39.2115 12.3206 39.3271 12.4059 39.4123C12.4911 39.4976 12.6067 39.5455 12.7273 39.5455H22.7273C22.8478 39.5455 22.9635 39.4976 23.0487 39.4123C23.1339 39.3271 23.1818 39.2115 23.1818 39.0909C23.1818 38.9704 23.1339 38.8547 23.0487 38.7695C22.9635 38.6843 22.8478 38.6364 22.7273 38.6364Z" fill="white"/>
<path d="M0.909088 30.9091C0.910015 31.7527 1.24554 32.5614 1.84204 33.1579C2.43855 33.7544 3.24732 34.09 4.09091 34.0909H28.1818V30.4545H0.909088V30.9091ZM16.3636 31.8182H19.0909C19.2115 31.8182 19.3271 31.8661 19.4123 31.9513C19.4976 32.0365 19.5455 32.1522 19.5455 32.2727C19.5455 32.3933 19.4976 32.5089 19.4123 32.5941C19.3271 32.6794 19.2115 32.7273 19.0909 32.7273H16.3636C16.2431 32.7273 16.1275 32.6794 16.0422 32.5941C15.957 32.5089 15.9091 32.3933 15.9091 32.2727C15.9091 32.1522 15.957 32.0365 16.0422 31.9513C16.1275 31.8661 16.2431 31.8182 16.3636 31.8182Z" fill="white"/>
<path d="M14.9727 17.7273L14.5682 18.9454C14.5455 19.0138 14.5394 19.0865 14.5504 19.1577C14.5615 19.2289 14.5894 19.2963 14.6318 19.3545C14.6732 19.4138 14.7283 19.4621 14.7924 19.4953C14.8565 19.5286 14.9278 19.5458 15 19.5454H20.4546C20.5268 19.5458 20.598 19.5286 20.6621 19.4953C20.7263 19.4621 20.7814 19.4138 20.8227 19.3545C20.8651 19.2963 20.893 19.2289 20.9041 19.1577C20.9152 19.0865 20.9091 19.0138 20.8864 18.9454L20.4818 17.7273H14.9727Z" fill="white"/>
<path d="M34.0909 31.3636C34.2114 31.3635 34.3269 31.3155 34.4121 31.2303C34.4973 31.1451 34.5453 31.0296 34.5454 30.9091V30C34.5454 29.8794 34.4976 29.7638 34.4123 29.6786C34.3271 29.5933 34.2115 29.5454 34.0909 29.5454C33.9703 29.5454 33.8547 29.5933 33.7695 29.6786C33.6842 29.7638 33.6364 29.8794 33.6364 30V30.9091C33.6365 31.0296 33.6844 31.1451 33.7697 31.2303C33.8549 31.3155 33.9704 31.3635 34.0909 31.3636Z" fill="white"/>
<path d="M35.4545 25H34.5454V28.7201C34.8106 28.8135 35.0403 28.9867 35.203 29.2158C35.3658 29.445 35.4537 29.7189 35.4545 30H39.0909V28.6364C39.0898 27.6723 38.7063 26.748 38.0246 26.0663C37.3429 25.3846 36.4186 25.0011 35.4545 25Z" fill="white"/>
<path d="M34.5455 32.189V33.1818C34.5455 33.3024 34.4976 33.418 34.4123 33.5032C34.3271 33.5885 34.2115 33.6364 34.0909 33.6364C33.9704 33.6364 33.8547 33.5885 33.7695 33.5032C33.6843 33.418 33.6364 33.3024 33.6364 33.1818V32.189C33.3712 32.0956 33.1415 31.9224 32.9788 31.6933C32.816 31.4641 32.7281 31.1902 32.7273 30.9091H29.0909V34.5455C29.0909 35.8715 29.6177 37.1433 30.5554 38.081C31.4931 39.0187 32.7648 39.5455 34.0909 39.5455C35.417 39.5455 36.6888 39.0187 37.6264 38.081C38.5641 37.1433 39.0909 35.8715 39.0909 34.5455V30.9091H35.4545C35.4537 31.1902 35.3658 31.4641 35.2031 31.6933C35.0403 31.9224 34.8106 32.0956 34.5455 32.189Z" fill="white"/>
<path d="M20.9091 14.0909H14.5455C14.2944 14.0909 14.0909 14.2944 14.0909 14.5454V16.3636C14.0909 16.6146 14.2944 16.8182 14.5455 16.8182H20.9091C21.1601 16.8182 21.3636 16.6146 21.3636 16.3636V14.5454C21.3636 14.2944 21.1601 14.0909 20.9091 14.0909Z" fill="white"/>
<path d="M17.7273 10.9091C17.9783 10.9091 18.1818 10.7056 18.1818 10.4545C18.1818 10.2035 17.9783 10 17.7273 10C17.4762 10 17.2727 10.2035 17.2727 10.4545C17.2727 10.7056 17.4762 10.9091 17.7273 10.9091Z" fill="white"/>
<path d="M8.63637 3.1818C8.91745 3.18094 9.19138 3.09309 9.42053 2.93032C9.64969 2.76755 9.82285 2.53783 9.91623 2.27271H13.1494C11.7398 3.0839 10.6686 4.37436 10.1306 5.90908H9.54546C9.4249 5.90908 9.30929 5.95697 9.22405 6.04221C9.1388 6.12745 9.09091 6.24307 9.09091 6.36362V8.1818C9.09091 8.30236 9.1388 8.41797 9.22405 8.50322C9.30929 8.58846 9.4249 8.63635 9.54546 8.63635H11.3636C11.4842 8.63635 11.5998 8.58846 11.6851 8.50322C11.7703 8.41797 11.8182 8.30236 11.8182 8.1818V6.36362C11.8182 6.24307 11.7703 6.12745 11.6851 6.04221C11.5998 5.95697 11.4842 5.90908 11.3636 5.90908H11.1028C11.5359 4.861 12.2631 3.96069 13.1966 3.31685C14.1301 2.67301 15.2301 2.31316 16.3636 2.28076V2.72726C16.3636 2.84781 16.4115 2.96343 16.4968 3.04867C16.582 3.13391 16.6976 3.1818 16.8182 3.1818H18.6364C18.7569 3.1818 18.8725 3.13391 18.9578 3.04867C19.043 2.96343 19.0909 2.84781 19.0909 2.72726V2.28076C20.2245 2.31316 21.3244 2.67301 22.258 3.31685C23.1915 3.96069 23.9187 4.861 24.3518 5.90908H24.0909C23.9704 5.90908 23.8547 5.95697 23.7695 6.04221C23.6843 6.12745 23.6364 6.24307 23.6364 6.36362V8.1818C23.6364 8.30236 23.6843 8.41797 23.7695 8.50322C23.8547 8.58846 23.9704 8.63635 24.0909 8.63635H25.9091C26.0296 8.63635 26.1453 8.58846 26.2305 8.50322C26.3157 8.41797 26.3636 8.30236 26.3636 8.1818V6.36362C26.3636 6.24307 26.3157 6.12745 26.2305 6.04221C26.1453 5.95697 26.0296 5.90908 25.9091 5.90908H25.324C24.786 4.37436 23.7147 3.0839 22.3052 2.27271H25.5383C25.6455 2.57599 25.8565 2.8316 26.134 2.99436C26.4115 3.15713 26.7375 3.21656 27.0546 3.16217C27.3716 3.10777 27.6592 2.94304 27.8665 2.6971C28.0739 2.45116 28.1876 2.13984 28.1876 1.81817C28.1876 1.49649 28.0739 1.18517 27.8665 0.939232C27.6592 0.693291 27.3716 0.528566 27.0546 0.47417C26.7375 0.419774 26.4115 0.47921 26.134 0.641972C25.8565 0.804734 25.6455 1.06034 25.5383 1.36362H19.0909V0.909077C19.0909 0.788524 19.043 0.672909 18.9578 0.587665C18.8725 0.502421 18.7569 0.454532 18.6364 0.454532H16.8182C16.6976 0.454532 16.582 0.502421 16.4968 0.587665C16.4115 0.672909 16.3636 0.788524 16.3636 0.909077V1.36362H9.91623C9.83247 1.12859 9.68572 0.921099 9.49202 0.763823C9.29831 0.606547 9.06511 0.505537 8.81788 0.47183C8.57066 0.438123 8.31893 0.473015 8.09019 0.572695C7.86145 0.672374 7.66451 0.833005 7.52089 1.03704C7.37727 1.24107 7.29249 1.48065 7.27581 1.72961C7.25913 1.97856 7.31121 2.22731 7.42634 2.44867C7.54147 2.67004 7.71522 2.8555 7.92862 2.98479C8.14202 3.11409 8.38685 3.18224 8.63637 3.1818Z" fill="white"/>
<path d="M21.7636 11.15L18.1818 4.43408V9.17467C18.4851 9.2819 18.7407 9.49289 18.9035 9.77035C19.0662 10.0478 19.1257 10.3739 19.0713 10.6909C19.0169 11.008 18.8521 11.2956 18.6062 11.5029C18.3603 11.7102 18.0489 11.824 17.7273 11.824C17.4056 11.824 17.0943 11.7102 16.8483 11.5029C16.6024 11.2956 16.4377 11.008 16.3833 10.6909C16.3289 10.3739 16.3883 10.0478 16.5511 9.77035C16.7138 9.49289 16.9694 9.2819 17.2727 9.17467V4.43408L13.6909 11.15C13.6512 11.2246 13.6331 11.3088 13.6387 11.3932C13.6443 11.4775 13.6734 11.5586 13.7227 11.6273L14.8318 13.1818H20.6227L21.7318 11.6273C21.7811 11.5586 21.8102 11.4775 21.8158 11.3932C21.8214 11.3088 21.8034 11.2246 21.7636 11.15Z" fill="white"/>
<path d="M31.8182 24.1818V23.1818H18.6364C18.275 23.1807 17.9288 23.0367 17.6733 22.7812C17.4178 22.5257 17.2738 22.1795 17.2727 21.8182V20.4545H15C14.7841 20.4536 14.5716 20.4016 14.3796 20.3029C14.1877 20.2041 14.0218 20.0614 13.8955 19.8864C13.7692 19.7113 13.686 19.5089 13.6529 19.2956C13.6197 19.0823 13.6374 18.8642 13.7045 18.6591L14.05 17.6273C13.7947 17.5288 13.5751 17.3555 13.4202 17.1299C13.2652 16.9044 13.1821 16.6372 13.1818 16.3636V14.5454C13.1826 14.3089 13.2445 14.0766 13.3616 13.8711C13.4787 13.6656 13.6469 13.4939 13.85 13.3727L13.0682 12.2727H4.0909C3.97045 12.2731 3.85504 12.3211 3.76987 12.4062C3.6847 12.4914 3.6367 12.6068 3.63635 12.7273V26.8182H28.5636C28.8561 26.1507 29.3042 25.5631 29.8705 25.1044C30.4367 24.6457 31.1046 24.3294 31.8182 24.1818Z" fill="white"/>
<path d="M2.72727 27.2727V12.7273C2.72833 12.3659 2.87233 12.0197 3.12784 11.7642C3.38334 11.5087 3.72957 11.3647 4.09091 11.3636H12.7227C12.723 11.1397 12.7793 10.9194 12.8864 10.7227L13.5136 9.54544H4.09091C3.24732 9.54637 2.43855 9.88189 1.84204 10.4784C1.24554 11.0749 0.910015 11.8837 0.909088 12.7273V29.5454H28.1818V28.6364C28.1821 28.3311 28.2126 28.0266 28.2727 27.7273H3.18182C3.06137 27.7269 2.94596 27.6789 2.86079 27.5937C2.77562 27.5086 2.72762 27.3932 2.72727 27.2727Z" fill="white"/>
<path d="M29.0909 28.6364V30H32.7273C32.7287 29.7188 32.8168 29.4449 32.9794 29.2156C33.1421 28.9862 33.3715 28.8125 33.6364 28.7182V25H32.7273C31.7632 25.0013 30.8391 25.3848 30.1574 26.0665C29.4757 26.7481 29.0922 27.6723 29.0909 28.6364Z" fill="white"/>
<path d="M22.5682 10.7227C22.6753 10.9194 22.7315 11.1397 22.7318 11.3636H31.3636C31.725 11.3647 32.0712 11.5087 32.3267 11.7642C32.5822 12.0197 32.7262 12.3659 32.7273 12.7273V20.4545H34.5455V12.7273C34.5445 11.8837 34.209 11.0749 33.6125 10.4784C33.016 9.88189 32.2072 9.54637 31.3636 9.54544H21.9409L22.5682 10.7227Z" fill="white"/>
<path d="M34.0909 21.3636H31.8182V12.7273C31.8178 12.6068 31.7698 12.4914 31.6847 12.4062C31.5995 12.3211 31.4841 12.2731 31.3636 12.2727H22.3864L21.6046 13.3727C21.8076 13.4939 21.9759 13.6656 22.093 13.8711C22.21 14.0766 22.272 14.3089 22.2727 14.5454V16.3636C22.2724 16.6372 22.1893 16.9044 22.0344 17.1299C21.8794 17.3555 21.6599 17.5288 21.4046 17.6273L21.75 18.6591C21.8172 18.8642 21.8349 19.0823 21.8017 19.2956C21.7685 19.5089 21.6854 19.7113 21.5591 19.8864C21.4328 20.0614 21.2669 20.2041 21.0749 20.3029C20.883 20.4016 20.6704 20.4536 20.4546 20.4545H18.1818V21.8182C18.1822 21.9386 18.2302 22.054 18.3153 22.1392C18.4005 22.2244 18.5159 22.2724 18.6364 22.2727H33.6364V25H34.5455V21.8182C34.5455 21.6976 34.4976 21.582 34.4123 21.4967C34.3271 21.4115 34.2115 21.3636 34.0909 21.3636Z" fill="white"/>
</g>
<defs>
<clipPath id="clip0_940_3903">
<rect width="40" height="40" fill="white"/>
</clipPath>
</defs>
</svg>
