<svg width="40" height="40" viewBox="0 0 40 40" fill="none" xmlns="http://www.w3.org/2000/svg">
<path d="M24 25.3333V22.6667C24.6 22.3693 26.316 20.3267 26.496 18.7307C26.968 18.6947 27.7093 18.2613 27.928 16.5507C28.0453 15.632 27.5787 15.116 27.296 14.9533C27.296 14.9533 28 13.616 28 12.0013C28 8.76401 26.7293 6.00134 24 6.00134C24 6.00134 23.052 4.00134 20 4.00134C14.344 4.00134 12 7.62934 12 12.0013C12 13.4733 12.704 14.9533 12.704 14.9533C12.4213 15.116 11.9547 15.6333 12.072 16.5507C12.2907 18.2613 13.032 18.6947 13.504 18.7307C13.684 20.3267 15.4 22.3693 16 22.6667V25.3333C14.6667 29.3333 4 26.6667 4 36H36C36 26.6667 25.3333 29.3333 24 25.3333Z" fill="white"/>
</svg>
