<svg width="40" height="40" viewBox="0 0 40 40" fill="none" xmlns="http://www.w3.org/2000/svg">
<path d="M35.5461 31.4144C34.7489 31.4158 33.9757 31.6872 33.3524 32.1843C32.7292 32.6814 32.2927 33.375 32.1141 34.1519H27.2526C27.1329 34.1518 27.0181 34.1042 26.9335 34.0195C26.8488 33.9348 26.8012 33.82 26.801 33.7003V28.2019C28.5451 25.8058 29.4854 22.9188 29.4871 19.9551C29.4872 19.873 29.4711 19.7917 29.4397 19.7159C29.4083 19.64 29.3623 19.5711 29.3042 19.5131C29.2462 19.455 29.1772 19.409 29.1014 19.3776C29.0255 19.3462 28.9442 19.3301 28.8621 19.3301H17.2718L6.69864 30.8468C8.76188 32.5277 11.2656 33.5787 13.9104 33.8742C14.4398 33.932 14.972 33.9612 15.5046 33.9617C18.8523 33.9685 22.0888 32.7608 24.6135 30.5625V33.7C24.6144 34.3997 24.8927 35.0705 25.3874 35.5652C25.8822 36.06 26.553 36.3383 27.2526 36.3391H32.3151C32.5681 36.9221 32.974 37.4258 33.4899 37.7968C34.0058 38.1679 34.6124 38.3925 35.2455 38.4468C35.8787 38.5012 36.5147 38.3833 37.0863 38.1056C37.6579 37.8279 38.1437 37.4007 38.4923 36.8694C38.8409 36.3381 39.0393 35.7224 39.0665 35.0875C39.0936 34.4526 38.9485 33.8222 38.6466 33.263C38.3446 32.7039 37.8971 32.2368 37.3513 31.9113C36.8055 31.5858 36.1816 31.4143 35.5461 31.4144ZM35.5461 36.2734C35.282 36.2734 35.0237 36.195 34.8041 36.0481C34.5845 35.9013 34.4133 35.6927 34.3123 35.4486C34.2112 35.2045 34.1848 34.9359 34.2364 34.6768C34.288 34.4177 34.4153 34.1797 34.6022 33.9929C34.789 33.8062 35.027 33.679 35.2862 33.6275C35.5453 33.5761 35.8139 33.6026 36.0579 33.7037C36.302 33.8049 36.5105 33.9761 36.6573 34.1958C36.804 34.4155 36.8823 34.6738 36.8822 34.938C36.8817 35.2921 36.7407 35.6316 36.4902 35.8819C36.2398 36.1323 35.9003 36.2731 35.5461 36.2734Z" fill="white"/>
<path d="M20.0114 16.7679H31.9719C32.054 16.7679 32.1353 16.7518 32.2111 16.7204C32.287 16.689 32.3559 16.643 32.4139 16.5849C32.472 16.5269 32.518 16.458 32.5494 16.3821C32.5808 16.3063 32.5969 16.225 32.5969 16.1429C32.5926 15.1397 32.4744 14.1402 32.2444 13.1638H34.0007C34.7004 13.1629 35.3712 12.8846 35.8659 12.3898C36.3607 11.895 36.639 11.2243 36.6399 10.5246V8.17088C37.437 7.91059 38.1151 7.37456 38.5525 6.65912C38.9898 5.94368 39.1577 5.09572 39.0259 4.26761C38.8941 3.4395 38.4713 2.68554 37.8335 2.14119C37.1957 1.59685 36.3847 1.29781 35.5461 1.29781C34.7076 1.29781 33.8966 1.59685 33.2587 2.14119C32.6209 2.68554 32.1981 3.4395 32.0664 4.26761C31.9346 5.09572 32.1024 5.94368 32.5398 6.65912C32.9771 7.37456 33.6553 7.91059 34.4524 8.17088V10.5246C34.4522 10.6443 34.4046 10.7591 34.3199 10.8438C34.2352 10.9285 34.1204 10.9761 34.0007 10.9763H31.5916C31.5732 10.9763 31.5559 10.9808 31.5376 10.9816C30.9557 9.59907 30.1431 8.32548 29.1344 7.21525L29.1338 7.214C27.9006 5.87032 26.4044 4.79458 24.738 4.05361C23.0715 3.31264 21.2705 2.92226 19.4469 2.90675H19.4426C19.2768 2.90675 19.1178 2.9726 19.0006 3.08981C18.8834 3.20702 18.8176 3.36599 18.8176 3.53175V15.574C18.8178 15.8906 18.9437 16.1941 19.1675 16.4179C19.3914 16.6417 19.6949 16.7676 20.0114 16.7679ZM35.5461 3.48781C35.8103 3.48788 36.0685 3.56628 36.2882 3.7131C36.5078 3.85993 36.679 4.06858 36.78 4.31268C36.8811 4.55678 36.9074 4.82536 36.8558 5.08446C36.8042 5.34356 36.677 5.58154 36.4901 5.7683C36.3033 5.95507 36.0652 6.08223 35.8061 6.13371C35.547 6.18519 35.2784 6.15867 35.0344 6.05752C34.7903 5.95636 34.5817 5.7851 34.435 5.56541C34.2883 5.34571 34.21 5.08744 34.2101 4.82325C34.2106 4.46913 34.3516 4.12968 34.602 3.87934C34.8525 3.62899 35.192 3.48819 35.5461 3.48781Z" fill="white"/>
<path d="M16.1938 6.575C16.1938 6.49291 16.1777 6.41161 16.1463 6.33576C16.1149 6.25991 16.0689 6.19099 16.0108 6.13294C15.9528 6.0749 15.8838 6.02886 15.808 5.99747C15.7321 5.96608 15.6509 5.94995 15.5688 5.95H15.4827C12.7285 5.94597 10.0344 6.755 7.7381 8.27568C5.44178 9.79635 3.64541 11.961 2.57416 14.4983C1.50291 17.0356 1.20444 19.8327 1.71616 22.5389C2.22788 25.2452 3.52703 27.7401 5.45076 29.7111L16.1938 18.0094V6.575Z" fill="white"/>
</svg>
