<svg width="25" height="27" viewBox="0 0 25 27" fill="none" xmlns="http://www.w3.org/2000/svg">
<g clip-path="url(#clip0_110_2059)">
<path fill-rule="evenodd" clip-rule="evenodd" d="M15.6667 1.16666C16.311 1.16666 16.8333 1.68899 16.8333 2.33332V8.16666H22.6667C23.311 8.16666 23.8333 8.68899 23.8333 9.33332C23.8333 9.97766 23.311 10.5 22.6667 10.5H15.6667C15.0223 10.5 14.5 9.97766 14.5 9.33332V2.33332C14.5 1.68899 15.0223 1.16666 15.6667 1.16666Z" fill="white"/>
<path fill-rule="evenodd" clip-rule="evenodd" d="M24.6583 0.341709C25.1139 0.79732 25.1139 1.53601 24.6583 1.99162L16.4916 10.1583C16.036 10.6139 15.2973 10.6139 14.8417 10.1583C14.3861 9.70268 14.3861 8.96399 14.8417 8.50838L23.0084 0.341709C23.464 -0.113903 24.2027 -0.113903 24.6583 0.341709Z" fill="white"/>
<g clip-path="url(#clip1_110_2059)">
<path d="M20.4642 20.16C18.7811 20.006 17.14 19.5782 15.5891 18.8875C14.8269 18.5438 13.9356 18.8549 13.5607 19.5953L12.5029 21.6953C9.29533 19.9173 6.63533 17.2558 4.86044 14.0513L6.95888 12.9951C7.69933 12.6233 8.012 11.732 7.66977 10.9667C6.97755 9.41732 6.54822 7.77777 6.39577 6.09155C6.32111 5.27955 5.66 4.66666 4.85577 4.66666H0.889106C0.459773 4.66666 0.111328 5.0151 0.111328 5.44443C0.111328 8.61155 0.801995 11.6651 2.16311 14.5242C4.23044 18.8207 7.73511 22.3253 12.0347 24.3942C14.8922 25.7553 17.9458 26.4444 21.1113 26.4444C21.5407 26.4444 21.8891 26.096 21.8891 25.6667V21.7C21.8891 20.8958 21.2762 20.2331 20.4642 20.16Z" fill="white"/>
</g>
</g>
<defs>
<clipPath id="clip0_110_2059">
<rect width="25" height="27" fill="white"/>
</clipPath>
<clipPath id="clip1_110_2059">
<rect width="21.7778" height="21.7778" fill="white" transform="translate(0.111328 4.66666)"/>
</clipPath>
</defs>
</svg>
