<svg width="18" height="18" viewBox="0 0 18 18" fill="none" xmlns="http://www.w3.org/2000/svg">
<path d="M8.65166 1.88324C4.85758 2.06243 1.86352 5.19662 1.87503 8.96429C1.87854 10.1118 2.15783 11.195 2.65052 12.152L1.89407 15.7942C1.85315 15.9912 2.03229 16.1637 2.2296 16.1174L5.82763 15.2718C6.75203 15.7286 7.79031 15.9924 8.88917 16.009C12.7671 16.0678 16.0006 13.0135 16.1214 9.16836C16.251 5.04664 12.8215 1.68626 8.65166 1.88324ZM12.9449 12.8554C11.8912 13.9006 10.4902 14.4762 9.00001 14.4762C8.12746 14.4762 7.29209 14.2821 6.51702 13.8991L6.01595 13.6515L3.80998 14.1699L4.27433 11.934L4.02747 11.4545C3.62511 10.6729 3.42109 9.82771 3.42109 8.94241C3.42109 7.46427 4.00139 6.07462 5.0551 5.02939C6.0994 3.99354 7.52325 3.40855 9.00011 3.40855C10.4903 3.40859 11.8912 3.9842 12.9449 5.02936C13.9986 6.07456 14.5789 7.4642 14.579 8.94231C14.5789 10.4073 13.9892 11.8196 12.9449 12.8554Z" fill="white"/>
<path d="M12.458 10.4749L11.0779 10.0818C10.8964 10.0301 10.701 10.0812 10.5688 10.2148L10.2313 10.5559C10.089 10.6997 9.87309 10.7459 9.68474 10.6703C9.03188 10.4082 7.65854 9.19703 7.30782 8.59119C7.20663 8.41643 7.22336 8.19794 7.3476 8.03848L7.64225 7.66037C7.75769 7.51222 7.78205 7.31326 7.70571 7.14201L7.12507 5.83937C6.98599 5.52737 6.58404 5.43655 6.32144 5.65684C5.93626 5.97999 5.47924 6.47105 5.42368 7.01506C5.32573 7.97421 5.74042 9.1833 7.30861 10.6351C9.12028 12.3123 10.5711 12.5339 11.5157 12.307C12.0514 12.1782 12.4796 11.6622 12.7498 11.2397C12.934 10.9516 12.7886 10.569 12.458 10.4749Z" fill="white"/>
</svg>
