<svg width="146" height="25" viewBox="0 0 146 25" fill="none" xmlns="http://www.w3.org/2000/svg">
<rect y="9.99393" width="12.6876" height="4" transform="rotate(-51.9705 0 9.99393)" fill="#E82FE5"/>
<rect x="2" y="20.9939" width="25.5644" height="4" transform="rotate(-51.9705 2 20.9939)" fill="#E82FE5"/>
<rect x="12" y="22.3882" width="15.7273" height="4" transform="rotate(-51.9705 12 22.3882)" fill="#E82FE5"/>
<path d="M30.59 19.5V5.5H34.27V16.14H39.73V19.5H30.59ZM48.9527 19.8C47.866 19.8 46.866 19.6167 45.9527 19.25C45.0393 18.8767 44.246 18.36 43.5727 17.7C42.8993 17.04 42.376 16.2667 42.0027 15.38C41.636 14.4933 41.4527 13.5333 41.4527 12.5C41.4527 11.46 41.636 10.4967 42.0027 9.61C42.376 8.72333 42.8993 7.95 43.5727 7.29C44.246 6.63 45.0393 6.11667 45.9527 5.75C46.866 5.38333 47.866 5.2 48.9527 5.2C50.0393 5.2 51.036 5.38667 51.9427 5.76C52.856 6.13333 53.6493 6.65333 54.3227 7.32C55.0027 7.98667 55.5293 8.76333 55.9027 9.65C56.276 10.53 56.4627 11.48 56.4627 12.5C56.4627 13.5333 56.276 14.4933 55.9027 15.38C55.5293 16.2667 55.0027 17.04 54.3227 17.7C53.6493 18.36 52.856 18.8767 51.9427 19.25C51.036 19.6167 50.0393 19.8 48.9527 19.8ZM48.9527 16.35C49.486 16.35 49.9727 16.26 50.4127 16.08C50.8593 15.9 51.246 15.6433 51.5727 15.31C51.8993 14.97 52.1527 14.5633 52.3327 14.09C52.5127 13.6167 52.6027 13.0867 52.6027 12.5C52.6027 11.7133 52.446 11.0333 52.1327 10.46C51.8193 9.88 51.386 9.43333 50.8327 9.12C50.286 8.80667 49.6593 8.65 48.9527 8.65C48.426 8.65 47.9393 8.74 47.4927 8.92C47.046 9.1 46.6593 9.35667 46.3327 9.69C46.006 10.0233 45.7527 10.43 45.5727 10.91C45.3993 11.3833 45.3127 11.9133 45.3127 12.5C45.3127 13.2867 45.4693 13.97 45.7827 14.55C46.096 15.1233 46.526 15.5667 47.0727 15.88C47.6193 16.1933 48.246 16.35 48.9527 16.35ZM67.0228 19.8C65.9495 19.8 64.9361 19.6333 63.9828 19.3C63.0295 18.9667 62.1861 18.4867 61.4528 17.86C60.7261 17.2333 60.1528 16.47 59.7328 15.57C59.3195 14.6633 59.1128 13.64 59.1128 12.5C59.1128 11.3733 59.3128 10.36 59.7128 9.46C60.1128 8.56 60.6695 7.79333 61.3828 7.16C62.0961 6.52667 62.9195 6.04333 63.8528 5.71C64.7928 5.37 65.7995 5.2 66.8728 5.2C67.3595 5.2 67.8761 5.23667 68.4228 5.31C68.9695 5.38333 69.5328 5.52 70.1128 5.72C70.6928 5.91333 71.2661 6.19333 71.8328 6.56L70.3128 9.4C69.8395 9.1 69.3428 8.87667 68.8228 8.73C68.3028 8.58333 67.7395 8.51 67.1328 8.51C66.4728 8.51 65.8795 8.60333 65.3528 8.79C64.8261 8.97 64.3795 9.23333 64.0128 9.58C63.6528 9.92667 63.3761 10.35 63.1828 10.85C62.9961 11.35 62.9028 11.91 62.9028 12.53C62.9028 13.4433 63.0961 14.2033 63.4828 14.81C63.8761 15.4167 64.4028 15.87 65.0628 16.17C65.7228 16.47 66.4528 16.62 67.2528 16.62C67.5328 16.62 67.8095 16.6 68.0828 16.56C68.3561 16.5133 68.6095 16.4567 68.8428 16.39V14.21H66.0828V11.31H72.0428V18.65C71.6095 18.8833 71.0995 19.09 70.5128 19.27C69.9328 19.4433 69.3361 19.5733 68.7228 19.66C68.1095 19.7533 67.5428 19.8 67.0228 19.8ZM82.6714 19.8C81.5847 19.8 80.5847 19.6167 79.6714 19.25C78.7581 18.8767 77.9647 18.36 77.2914 17.7C76.6181 17.04 76.0947 16.2667 75.7214 15.38C75.3547 14.4933 75.1714 13.5333 75.1714 12.5C75.1714 11.46 75.3547 10.4967 75.7214 9.61C76.0947 8.72333 76.6181 7.95 77.2914 7.29C77.9647 6.63 78.7581 6.11667 79.6714 5.75C80.5847 5.38333 81.5847 5.2 82.6714 5.2C83.7581 5.2 84.7547 5.38667 85.6614 5.76C86.5747 6.13333 87.3681 6.65333 88.0414 7.32C88.7214 7.98667 89.2481 8.76333 89.6214 9.65C89.9947 10.53 90.1814 11.48 90.1814 12.5C90.1814 13.5333 89.9947 14.4933 89.6214 15.38C89.2481 16.2667 88.7214 17.04 88.0414 17.7C87.3681 18.36 86.5747 18.8767 85.6614 19.25C84.7547 19.6167 83.7581 19.8 82.6714 19.8ZM82.6714 16.35C83.2047 16.35 83.6914 16.26 84.1314 16.08C84.5781 15.9 84.9647 15.6433 85.2914 15.31C85.6181 14.97 85.8714 14.5633 86.0514 14.09C86.2314 13.6167 86.3214 13.0867 86.3214 12.5C86.3214 11.7133 86.1647 11.0333 85.8514 10.46C85.5381 9.88 85.1047 9.43333 84.5514 9.12C84.0047 8.80667 83.3781 8.65 82.6714 8.65C82.1447 8.65 81.6581 8.74 81.2114 8.92C80.7647 9.1 80.3781 9.35667 80.0514 9.69C79.7247 10.0233 79.4714 10.43 79.2914 10.91C79.1181 11.3833 79.0314 11.9133 79.0314 12.5C79.0314 13.2867 79.1881 13.97 79.5014 14.55C79.8147 15.1233 80.2447 15.5667 80.7914 15.88C81.3381 16.1933 81.9647 16.35 82.6714 16.35ZM95.447 19.5V8.85H91.777V5.5H102.817V8.85H99.147V19.5H95.447ZM109.062 19.5V13.71L104.172 5.5H108.282L110.982 10.19L113.652 5.5H117.652L112.762 13.75V19.5H109.062ZM120.086 19.5V5.5H125.886C126.939 5.5 127.879 5.68667 128.706 6.06C129.533 6.43333 130.183 6.97333 130.656 7.68C131.129 8.38667 131.366 9.23667 131.366 10.23C131.366 11.2367 131.146 12.0933 130.706 12.8C130.266 13.5 129.629 14.0367 128.796 14.41C127.969 14.7767 126.969 14.96 125.796 14.96H123.766V19.5H120.086ZM123.766 11.91H125.666C126.299 11.91 126.793 11.7867 127.146 11.54C127.506 11.2933 127.686 10.8767 127.686 10.29C127.686 9.69 127.499 9.26667 127.126 9.02C126.759 8.76667 126.279 8.64 125.686 8.64H123.766V11.91ZM134.387 19.5V5.5H144.497V8.68H138.067V10.89H143.397V13.81H138.067V16.28H144.577V19.5H134.387Z" fill="black"/>
</svg>
